<svg width="210" height="200" viewBox="0 0 210 200" fill="none" xmlns="http://www.w3.org/2000/svg">
<ellipse cx="104.933" cy="100" rx="104.48" ry="100" fill="#D9D9D9"/>
<path d="M153.05 148.75V137.917C153.05 132.17 150.521 126.659 146.018 122.596C141.515 118.533 135.408 116.25 129.04 116.25H81.0187C74.6507 116.25 68.5435 118.533 64.0406 122.596C59.5378 126.659 57.0081 132.17 57.0081 137.917V148.75M129.04 72.9167C129.04 84.8828 118.29 94.5833 105.029 94.5833C91.7685 94.5833 81.0187 84.8828 81.0187 72.9167C81.0187 60.9505 91.7685 51.25 105.029 51.25C118.29 51.25 129.04 60.9505 129.04 72.9167Z" stroke="#1E1E1E" stroke-width="4" stroke-linecap="round" stroke-linejoin="round"/>
</svg>
