<svg width="198" height="70" viewBox="0 0 198 70" fill="none" xmlns="http://www.w3.org/2000/svg">
<g clip-path="url(#clip0_6_106)">
<path d="M42.0604 31.4602C42.9609 31.7554 44.0471 33.0078 44.3441 34.0813C44.4184 34.3407 44.4555 35.772 44.4648 38.4647C44.4834 40.6564 44.5205 42.5172 44.5577 42.5977C44.6134 42.705 44.5484 42.8482 44.3349 43.0718C43.9728 43.4744 42.3018 44.691 40.9279 45.5498C39.9067 46.1939 38.1707 47.0616 37.9015 47.0616C37.7622 47.0616 37.753 46.507 37.753 40.9964C37.753 37.6685 37.7994 34.6806 37.8458 34.3675C38.0222 33.1867 38.9041 32.0327 40.0274 31.5317C40.5937 31.2723 41.4106 31.2455 42.0604 31.4602Z" fill="#656AC6"/>
<path d="M34.1046 31.3618C34.6894 31.5317 35.4971 32.0953 35.7756 32.5516C35.8963 32.7305 36.082 33.142 36.1934 33.464C36.3753 33.9985 36.3874 34.1588 36.4185 39.483L36.425 40.6184L36.4254 40.7012C36.4533 44.36 36.444 47.4373 36.4162 47.5447C36.3419 47.8489 35.1722 48.153 33.9282 48.2067V48.2067C33.3804 48.2262 32.9256 47.7874 32.9256 47.2392V43.3312C32.9256 40.1823 32.8885 38.2232 32.8235 37.8832C32.6935 37.2123 32.2665 36.4251 31.6909 35.8257L31.4513 35.5708C31.3487 35.4616 31.3804 35.2843 31.5145 35.2174V35.2174C31.9416 35.0027 32.4243 34.4212 32.6471 33.8576C32.8977 33.2135 32.9256 32.2474 32.7121 31.7017C32.5728 31.3528 32.5821 31.326 32.7214 31.2902C33.0649 31.2007 33.659 31.2365 34.1046 31.3618Z" fill="#656AC6"/>
<path d="M30.3355 31.2455C31.1061 31.4959 31.5331 32.0595 31.5331 32.8289C31.5331 33.5893 31.2082 34.0992 30.5119 34.4481C29.5372 34.9311 28.4232 34.6001 27.9961 33.6966C27.3092 32.2474 28.7574 30.7266 30.3355 31.2455Z" fill="#656AC6"/>
<path d="M34.3367 23.9994C34.9958 24.2946 35.5714 24.8403 35.887 25.4933C36.0819 25.8959 36.1284 26.1285 36.1284 26.6652C36.1284 27.5151 35.8499 28.1323 35.135 28.8301V28.8301C34.4816 29.4732 33.4953 29.6513 32.5808 29.5853C32.2963 29.5648 32.018 29.5165 31.8023 29.4205C31.0782 29.0985 30.5583 28.6243 30.2334 27.9624C29.8807 27.2556 29.8435 26.3253 30.1406 25.5738C30.3263 25.0908 31.0504 24.3035 31.5331 24.062C32.3779 23.6505 33.4733 23.6237 34.3367 23.9994Z" fill="#656AC6"/>
<path d="M41.9769 24.2588C44.4091 24.9834 44.6784 28.2755 42.3946 29.4742C40.7051 30.3598 38.6442 29.34 38.2078 27.3898C38.0036 26.4774 38.4399 25.2518 39.164 24.6882C39.9717 24.0709 40.8814 23.9278 41.9769 24.2588Z" fill="#656AC6"/>
<path d="M60.5715 13.7922C62.4467 13.989 63.6536 14.4184 64.5262 15.2146C65.1668 15.7961 65.436 16.3776 65.4917 17.2721C65.5659 18.5603 64.8511 20.8147 63.8021 22.6396C63.5236 23.1048 63.1059 23.8473 62.8645 24.2946C61.7041 26.3879 61.4998 26.7099 59.1511 30.1362C57.7029 32.2474 57.3594 32.6768 54.5559 35.9778C54.2932 36.29 53.6673 37.0238 53.1296 37.6541L53.0334 37.7669C52.0679 38.912 51.1024 39.896 48.0111 42.9018C45.9409 44.9146 43.3787 46.8111 40.8165 48.2246C39.2661 49.0923 36.3512 50.3447 34.086 51.132C33.4269 51.3646 32.7585 51.615 32.6007 51.6955C32.1458 51.9192 25.8145 53.9409 24.8027 54.1825C24.2921 54.3077 23.6237 54.4866 23.3173 54.5761C21.6556 55.086 18.9541 55.7122 17.4688 55.9269C13.282 56.5263 12.595 56.58 10.8126 56.4547C10.0421 56.401 9.13232 56.3026 8.78884 56.2311C6.85789 55.8375 5.57679 55.0055 4.97337 53.7352C4.70415 53.1806 4.66702 52.9927 4.62988 52.1607C4.60203 51.3646 4.62988 51.0783 4.83412 50.3268C5.16832 49.0655 6.43086 46.6322 6.82076 46.4802C6.89503 46.4533 7.10854 46.507 7.3035 46.5875V46.5875C7.5 46.6749 7.58253 46.9096 7.484 47.1007L6.96929 48.0993C6.08737 49.8169 5.88314 50.5773 5.92956 51.8834C5.95741 52.6975 5.99454 52.9032 6.21734 53.3416C6.89503 54.6745 8.59388 55.3275 11.6667 55.4438C12.9106 55.4886 13.3191 55.4617 14.7302 55.2649C15.6214 55.1397 16.8189 54.9697 17.376 54.8892C18.3414 54.764 19.3533 54.5224 23.1781 53.5473C25.7588 52.8943 31.6723 50.9799 34.1324 50.0048C36.9546 48.8866 38.2914 48.314 39.1455 47.8578C41.3828 46.6591 42.9516 45.6303 44.994 44.029C46.1358 43.1344 50.6568 38.7689 51.9101 37.3554C53.3212 35.7541 55.772 32.8468 56.2269 32.2116C56.459 31.8896 56.886 31.3081 57.1831 30.9145C58.1857 29.5815 59.244 28.0518 59.7638 27.202C60.0516 26.7368 60.5529 25.9227 60.8778 25.3949C62.8552 22.2102 63.7278 20.4211 64.0806 18.8645C64.4891 17.0395 64.1085 16.1986 62.521 15.4293C60.9707 14.6778 59.1326 14.5437 56.5518 14.982C55.7906 15.1162 54.6951 15.3041 54.1288 15.3935C52.8199 15.6082 51.8451 15.8229 49.8213 16.3418C48.9301 16.5654 47.844 16.8248 47.4077 16.9143C46.9713 17.0038 46.2194 17.2006 45.7367 17.3437C44.8083 17.63 42.9424 18.1399 41.9305 18.3904C41.3642 18.5335 40.2688 18.9092 37.753 19.8217C31.6445 22.0492 26.9935 24.6703 23.5123 27.8371C22.2869 28.9553 19.8175 31.5765 18.8334 32.7931C18.3971 33.3298 17.738 34.0902 17.3574 34.4749C16.9861 34.8596 16.4847 35.441 16.2341 35.7631C15.3615 36.926 14.1546 38.4647 12.6136 40.3791L12.4375 40.5988C11.0926 42.2762 10.9869 42.408 10.2742 43.4296C9.89355 43.9664 9.5315 44.4226 9.4758 44.4405C9.37369 44.4763 9.06734 43.5817 9.06734 43.2507C9.06734 43.1613 9.3644 42.714 9.72645 42.2756C10.0885 41.8283 10.5991 41.1664 10.859 40.7996C11.4717 39.9229 12.595 38.4826 13.087 37.9548C13.3006 37.7222 13.8111 37.096 14.2196 36.5682C14.9716 35.5752 15.5286 34.9043 16.559 33.7234C16.8839 33.3567 17.5616 32.5605 18.0815 31.9432C21.702 27.6135 25.2483 24.5451 28.9802 22.4875C32.5543 20.5284 37.8087 18.4083 41.3735 17.4868C42.2368 17.2632 44.3627 16.6549 45.7367 16.2344C46.1173 16.1181 46.8135 15.966 47.2684 15.8855C47.7326 15.805 48.9023 15.5456 49.8678 15.3041C50.8425 15.0625 52.0122 14.8031 52.4671 14.7226C52.9313 14.651 53.7204 14.49 54.2309 14.3647C56.7375 13.7922 58.7984 13.6044 60.5715 13.7922Z" fill="#656AC6"/>
<path d="M43.6572 19.5891C44.9661 20.1885 46.3401 21.1278 47.9183 22.5323C49.4407 23.8831 51.1396 26.1911 51.9751 28.025C52.7363 29.7068 53.2748 31.648 53.414 33.1688V33.1688C53.4493 33.5885 53.2974 34.0024 52.999 34.2996L52.9127 34.3854C52.6064 34.6896 52.3093 35.0116 52.2629 35.1011C52.1979 35.2263 52.1515 34.9759 52.1143 34.2065C52.0308 32.7573 51.8173 31.6391 51.3995 30.4135C50.9539 29.1164 50.0163 27.2377 49.2551 26.1374C48.0668 24.4019 45.2725 21.9687 43.4065 21.0383C42.8774 20.7699 42.1533 20.3942 41.8005 20.1885L41.5268 20.0355C41.3962 19.9626 41.423 19.7673 41.5684 19.7322V19.7322C41.7912 19.6696 42.144 19.5444 42.3482 19.437V19.437C42.6405 19.2834 42.9612 19.2912 43.2653 19.4198C43.3849 19.4704 43.5191 19.5283 43.6572 19.5891Z" fill="#656AC6"/>
<path d="M53.2933 39.4756C53.0241 41.6584 51.9472 43.9038 49.942 46.4623C47.5005 49.5754 43.6479 51.9281 39.2847 52.9659C37.1867 53.4579 35.3486 53.601 33.4826 53.4042C31.923 53.2432 31.923 53.2432 32.972 52.7959C33.5383 52.5543 34.1139 52.3844 34.4945 52.3397C34.7993 52.2989 35.529 52.2134 36.1762 52.1376L36.3605 52.116C42.9516 51.3556 48.1689 47.8489 50.9075 42.3383C51.5202 41.1037 51.678 40.8622 52.1979 40.3702C52.5228 40.066 52.8941 39.6366 53.0334 39.413C53.1634 39.1893 53.2933 39.0104 53.3119 39.0104C53.3397 39.0104 53.3305 39.2251 53.2933 39.4756Z" fill="#656AC6"/>
<path d="M17.7473 37.3107C17.9237 38.5721 18.2486 40.0213 18.5457 40.889C18.7777 41.5779 19.8732 43.7338 20.3095 44.3511C20.8665 45.1472 22.0084 46.4802 22.6118 47.0437C23.8836 48.2156 26.1952 49.7096 27.6619 50.2821C27.9497 50.3984 28.2653 50.5684 28.3489 50.6578C28.4881 50.801 28.4789 50.8189 28.321 50.8725C28.2189 50.9083 27.8569 51.0515 27.5041 51.2035L27.4359 51.2308C27.0664 51.3783 26.6511 51.3586 26.2973 51.1767V51.1767C23.8 49.8796 21.8784 48.4303 20.5602 46.8648C19.0562 45.0846 17.9979 43.3133 17.2089 41.2469C16.8654 40.3612 16.4012 38.5094 16.4012 38.0532C16.4012 37.8743 16.5962 37.5165 16.9768 36.9708C17.2924 36.5145 17.5523 36.1567 17.5616 36.1656C17.5802 36.1835 17.6545 36.6935 17.7473 37.3107Z" fill="#656AC6"/>
<path d="M37.558 17.2453V17.2453C37.6962 17.2604 37.7267 17.4478 37.6005 17.506L37.001 17.782C35.8406 18.3188 35.3764 18.4261 33.3062 18.6587C30.4005 18.9718 27.6898 19.8933 25.4618 21.3156C23.4658 22.5859 22.5468 23.4179 20.9686 25.386C20.0774 26.4952 19.8268 26.8799 19.0562 28.3918C18.2393 30.0109 18.1279 30.1809 17.3574 30.986C16.9118 31.4512 16.5312 31.8269 16.5219 31.818C16.4476 31.7464 16.9118 29.8678 17.1996 29.0627C18.1836 26.3163 20.6344 23.0958 23.1781 21.1904C25.9538 19.115 28.7202 17.9878 32.6935 17.3079C33.7518 17.129 36.2026 17.0932 37.558 17.2453Z" fill="#656AC6"/>
<path d="M39.5168 12.835C41.2992 13.1839 42.4132 13.4612 43.6201 13.8727C44.6876 14.2395 45.7645 14.7584 45.7552 14.8926C45.7459 14.991 44.4834 15.483 44.242 15.483C44.1399 15.483 43.7593 15.3846 43.388 15.2593C42.0047 14.7942 40.5101 14.4095 39.1826 14.1679C37.9201 13.9533 37.5859 13.9264 35.4321 13.9264C33.4083 13.9264 32.8699 13.9532 31.7188 14.1232C26.5572 14.9104 22.259 17.0127 18.7128 20.5016L17.6529 21.5367C17.4817 21.704 17.2098 21.7091 17.0325 21.5482V21.5482C16.8468 21.3872 16.6054 21.1904 16.494 21.1099V21.1099C16.377 21.0347 16.3548 20.8728 16.4472 20.7689L16.9396 20.2153C18.7777 18.1041 22.2219 15.7156 25.2018 14.49C26.7986 13.828 27.6991 13.5417 29.3886 13.1571C31.8023 12.6114 32.5264 12.5398 35.8499 12.5756C38.0407 12.5935 38.3749 12.6203 39.5168 12.835Z" fill="#656AC6"/>
<path d="M15.1851 22.1029C15.937 22.3086 16.6797 23.1943 16.6797 23.892C16.6797 24.5987 15.9556 25.4754 15.2036 25.6901C14.4146 25.9138 13.3098 25.4217 12.9014 24.6614C12.66 24.2051 12.6879 23.4716 12.9849 22.9885C13.2634 22.5323 13.5605 22.3086 14.1268 22.1386C14.5909 21.9955 14.7859 21.9866 15.1851 22.1029Z" fill="#656AC6"/>
<path d="M38.4028 7.73592C42.9981 8.29056 47.8068 9.96341 51.4088 12.2535C52.6156 13.0229 53.2748 13.6044 52.9406 13.6044C52.8663 13.6044 52.5599 13.7117 52.2722 13.8369C51.6687 14.1053 51.7801 14.1322 50.564 13.3807C49.0323 12.4325 47.6119 11.7347 45.7181 11.0011C42.209 9.64136 37.9201 8.88097 34.5038 8.99727C31.8023 9.09567 29.9085 9.36405 27.7269 9.95447C26.1487 10.3749 25.7867 10.5002 24.0693 11.2069C20.7829 12.5487 17.7566 14.4721 15.0644 16.9143C14.2939 17.63 14.0339 17.961 14.4888 17.6747C14.6931 17.5405 14.7116 17.5405 14.758 17.7373C14.7859 17.8536 14.8416 18.6408 14.8787 19.4817L14.9281 20.6584C14.9366 20.8607 14.7749 21.0294 14.5724 21.0294V21.0294C14.0989 21.0294 14.0896 20.9846 14.0711 19.5086C14.0711 18.8913 14.0247 18.2919 13.9875 18.1667C13.9504 18.0415 13.9133 17.9878 13.904 18.0504C13.8947 18.1041 13.6348 18.4619 13.3098 18.8555C12.9849 19.2402 12.4094 20.0185 12.0287 20.5821C11.6574 21.1457 11.2489 21.745 11.1375 21.915C10.5712 22.7291 9.18802 25.5917 8.7517 26.871C7.65626 30.0288 7.34991 31.8896 7.35919 35.4321C7.35919 38.1337 7.39633 38.5363 7.95333 41.2558C8.26896 42.7855 8.37108 43.1255 8.72385 43.8054C8.94665 44.2437 9.22515 44.9057 9.33655 45.2725C9.63362 46.2386 10.5248 47.8846 11.5274 49.3339C12.2979 50.461 12.79 51.0783 14.7488 53.3953C15.0458 53.7441 15.2872 54.0483 15.2872 54.0751C15.2872 54.093 14.9623 54.1825 14.5724 54.2719V54.2719C14.122 54.3665 13.6547 54.2221 13.3362 53.89L13.1706 53.7173C10.7662 51.2393 8.79812 48.2156 7.7491 45.4067C7.48916 44.7178 7.20138 43.9395 7.10854 43.6801C6.88574 43.0897 6.33802 40.7727 6.14307 39.6366C5.80887 37.6149 5.75317 34.457 6.01311 32.1221C6.32874 29.2863 7.48916 25.4844 8.85382 22.8633C10.497 19.7054 12.8178 16.8159 15.4357 14.6689C17.3481 13.1034 18.6571 12.2178 20.4209 11.2874C24.0507 9.373 28.4232 8.00429 31.8395 7.70908C33.3341 7.58384 37.2424 7.60173 38.4028 7.73592Z" fill="#656AC6"/>
<path d="M51.9412 49.8779C52.0114 49.9198 52.0753 49.9929 52.1429 50.0386C52.2449 50.1076 52.4071 50.1901 52.5692 50.2463C52.792 50.3268 52.9777 50.4252 52.9777 50.461C52.9777 50.6042 52.1607 51.4093 51.2138 52.1876C45.4025 56.9915 38.4399 58.9327 31.1618 57.7876C28.943 57.4388 26.4272 56.7499 24.9698 56.0879C24.5427 55.8911 24.1992 55.7212 24.1992 55.7033C24.1992 55.6854 24.4499 55.5243 24.7562 55.3454C25.304 55.0144 25.3318 55.0144 25.7867 55.1039C26.0466 55.1576 26.9285 55.4081 27.7548 55.6585C29.5 56.1863 30.5119 56.3921 32.3408 56.58C34.9772 56.8662 38.3749 56.6873 40.538 56.1506C42.5803 55.6496 45.2725 54.5493 46.9621 53.5294C48.2617 52.7422 49.8956 51.5256 50.8797 50.6221C51.2216 50.3057 51.5434 50.0331 51.7114 49.9078C51.7846 49.8533 51.8629 49.8311 51.9412 49.8779V49.8779Z" fill="#656AC6"/>
<path d="M54.5651 45.8629C55.2521 46.1939 55.6884 47.1421 55.4842 47.8578C55.1964 48.9134 53.6739 49.477 52.727 48.8776C52.1979 48.5466 51.9101 48.0367 51.9194 47.4195C51.9287 46.838 52.1051 46.4802 52.5599 46.0955C52.8663 45.8361 52.9777 45.7824 53.4883 45.6929C53.7575 45.6482 54.2866 45.7287 54.5651 45.8629Z" fill="#656AC6"/>
<path d="M58.8355 34.0634C59.0026 35.2532 58.8912 37.6149 58.6034 39.1535C58.1578 41.5063 57.1923 44.3242 56.6168 45.0041V45.0041C56.467 45.1742 56.2158 45.2105 56.0241 45.0896L55.8741 44.9951C55.6142 44.8252 55.3914 44.6284 55.3914 44.5479C55.3914 44.4763 55.5956 43.9217 55.8463 43.3223C56.8767 40.8801 57.3594 38.5005 57.3594 35.8794V35.4904C57.3594 34.8438 57.575 34.2158 57.9721 33.7056V33.7056C58.6777 32.7931 58.6591 32.7931 58.8355 34.0634Z" fill="#656AC6"/>
<path d="M49.877 17.6657C51.1396 18.4888 53.3583 20.752 54.4537 22.3176C55.085 23.2121 56.0133 24.7866 56.4404 25.6812C56.7839 26.3879 57.6194 28.4902 57.6194 28.6422C57.6194 28.678 57.4894 28.7854 57.3409 28.8748C57.183 28.9643 56.951 29.1879 56.8117 29.3758V29.3758C56.7052 29.524 56.4763 29.4926 56.4137 29.3211L56.3847 29.2416C55.3728 26.5847 54.6487 25.1623 53.3026 23.2211C52.235 21.6735 50.9632 20.2958 49.7192 19.3118C48.401 18.283 47.909 17.8268 48.0668 17.7731C48.1411 17.7552 48.3824 17.6747 48.6145 17.6031C49.2179 17.4063 49.5057 17.4242 49.877 17.6657Z" fill="#656AC6"/>
<path d="M56.7932 16.798C57.508 17.5405 58.7612 19.1955 59.7453 20.7073C60.3858 21.6914 60.5993 22.076 60.8593 22.7112V22.7112C60.9741 22.9879 60.9325 23.3049 60.75 23.5426L60.7015 23.6058C60.5158 23.8562 60.3116 24.1246 60.2559 24.2141C60.1723 24.3483 60.1166 24.2856 59.8752 23.7847C59.7174 23.4537 59.4203 22.9527 59.2254 22.6665C59.0212 22.3802 58.7427 21.9418 58.5941 21.7003C58.2414 21.083 56.6632 18.9629 56.069 18.292C55.8091 17.9878 55.3357 17.4242 55.0293 17.0395L54.9746 16.9713C54.7606 16.7042 54.9381 16.3068 55.28 16.2881V16.2881C55.7256 16.2613 56.1526 16.2702 56.2269 16.306C56.3104 16.3328 56.5611 16.5565 56.7932 16.798Z" fill="#656AC6"/>
<path d="M62.9388 27.6671C63.3008 28.7764 63.7278 30.6461 63.9042 31.9253C64.0249 32.7752 64.062 33.6787 64.062 35.5216C64.062 37.8743 64.0528 38.0532 63.765 39.6813C63.3472 42.0788 63.078 43.1165 62.391 45.0488C61.5834 47.3032 59.4761 50.7831 57.508 53.1179C56.0319 54.8624 53.7296 56.9378 52.0772 57.9934C49.1994 59.8362 47.3891 60.704 44.4277 61.6701C42.5525 62.2874 41.3642 62.5647 39.3404 62.8599C35.2186 63.4593 31.2639 63.1551 26.5572 61.8759C23.9857 61.1781 20.5323 59.5768 18.2115 58.0113C17.5895 57.5908 16.9582 57.0004 17.1532 57.0183C17.2274 57.0272 17.5802 56.9825 17.9515 56.9109C18.7777 56.7589 18.9727 56.8125 20.5416 57.725C21.8505 58.4765 24.0786 59.5231 25.3318 59.9704C28.7017 61.1781 32.4986 61.8132 35.757 61.7059C40.0181 61.5628 44.1585 60.5608 47.6398 58.8343C50.202 57.564 51.8173 56.5084 53.6275 54.916C55.4192 53.3416 56.691 51.9103 57.9536 50.0495C60.9335 45.6392 62.2054 41.8999 62.5396 36.5056C62.6788 34.2423 62.4839 32.1758 61.8897 29.6531C61.7319 29.0001 61.6112 28.3739 61.6112 28.2576C61.6112 28.1323 61.7319 27.9266 61.899 27.7745C62.0568 27.6314 62.2611 27.3809 62.3725 27.2199C62.4746 27.0678 62.586 26.9336 62.6231 26.9336C62.6695 26.9336 62.8088 27.2646 62.9388 27.6671Z" fill="#656AC6"/>
<path d="M59.9124 55.5601C60.358 55.7569 61.0542 56.3831 61.2956 56.8215C61.5277 57.233 61.5277 58.2618 61.3049 58.6733C61.0357 59.1563 60.4972 59.6752 60.0145 59.9078C58.8819 60.4624 57.3687 59.9078 56.7746 58.7091C56.5239 58.2081 56.4961 57.3046 56.7189 56.8036C56.9138 56.3384 57.508 55.7391 57.9443 55.5512C58.4456 55.3275 59.4018 55.3275 59.9124 55.5601Z" fill="#656AC6"/>
<path d="M47.8718 33.4551C49.0601 34.0276 49.3479 36.3893 48.4474 38.3037C48.1132 39.0283 46.1173 41.6673 45.9038 41.6852C45.7274 41.7031 45.6902 40.9695 45.6902 37.7848V34.8514C45.6902 34.5427 45.7877 34.2419 45.9687 33.9918V33.9918C46.3029 33.5356 46.9528 33.1778 47.3055 33.2493C47.4355 33.2762 47.6954 33.3746 47.8718 33.4551Z" fill="#656AC6"/>
<path d="M53.6275 60.6145C54.231 60.9097 54.2774 61.6791 53.7111 61.9564C53.1726 62.2337 52.7456 62.0727 52.43 61.4912C52.3 61.2407 52.4207 60.9187 52.7549 60.6682C53.052 60.4445 53.2655 60.4356 53.6275 60.6145Z" fill="#656AC6"/>
<path d="M35.5435 54.6387C35.757 54.8266 35.757 55.1307 35.5342 55.3275C35.2836 55.5422 34.9587 55.4796 34.7823 55.1755C34.6523 54.9339 34.6523 54.916 34.903 54.7013C35.2093 54.4509 35.3114 54.433 35.5435 54.6387Z" fill="#656AC6"/>
<path d="M47.8811 29.3132C48.4845 29.6084 48.9023 30.3688 48.763 30.9145C48.6702 31.2812 48.0761 31.8448 47.6676 31.9611C46.9528 32.1669 46.0709 31.7554 45.7738 31.0755C45.5881 30.664 45.616 30.2793 45.8481 29.8768C46.2658 29.1611 47.092 28.9285 47.8811 29.3132Z" fill="#656AC6"/>
<path d="M14.0432 26.9336C14.1361 26.9336 14.0525 27.2556 13.7462 28.1502C12.8828 30.6998 12.6229 32.2027 12.5208 35.0922L12.4714 36.5604C12.4613 36.8605 12.3475 37.1477 12.1494 37.3733V37.3733C11.9823 37.5612 11.7595 37.8475 11.6388 37.9995C11.5274 38.1606 11.4067 38.2947 11.3789 38.2947C11.1282 38.2947 11.0076 34.3318 11.2118 32.5873C11.4253 30.6908 12.2608 27.5956 12.79 26.7547V26.7547C12.892 26.5994 13.0907 26.5398 13.2614 26.6132L13.4862 26.7099C13.774 26.8352 14.0247 26.9336 14.0432 26.9336Z" fill="#656AC6"/>
<path d="M7.19209 19.3297C7.44274 19.5623 7.45203 19.8127 7.21066 20.0453C6.91359 20.3316 6.56082 20.3763 6.35659 20.1348C5.85529 19.5354 6.60724 18.8108 7.19209 19.3297Z" fill="#656AC6"/>
<path d="M9.50365 34.9401C9.90284 35.2084 9.78216 35.7094 9.29014 35.8257C9.10447 35.8704 8.98379 35.8347 8.82597 35.6915C8.53819 35.4321 8.54747 35.2174 8.84453 34.9938C9.1416 34.7701 9.24372 34.7612 9.50365 34.9401Z" fill="#656AC6"/>
<path d="M12.1494 13.9175C12.3072 14.2485 12.103 15.7513 11.8802 15.9124C11.5831 16.1181 11.3603 16.0108 11.2675 15.6172C11.1932 15.2862 11.2582 13.9175 11.351 13.7654C11.3789 13.7207 11.546 13.6938 11.7224 13.6938C11.973 13.6938 12.0659 13.7385 12.1494 13.9175Z" fill="#656AC6"/>
<path d="M10.7383 13.4523C10.7383 13.6222 9.56864 15.0625 9.39225 15.1073C9.33655 15.1162 9.21587 15.0536 9.12304 14.9552C8.95593 14.7763 8.95593 14.7584 9.13232 14.4363C9.35512 14.0248 10.5712 13.0408 10.6641 13.1929C10.7012 13.2465 10.7383 13.3628 10.7383 13.4523Z" fill="#656AC6"/>
<path d="M10.0607 10.7775C10.6362 11.3232 10.6641 11.3769 10.5991 11.6542C10.562 11.8152 10.5434 12.182 10.5527 12.4593L10.5539 12.5285C10.5585 12.7803 10.3749 12.9961 10.1256 13.0318V13.0318C9.55936 13.1123 8.40822 12.9245 8.25968 12.7366C8.0833 12.5219 8.11115 12.2804 8.3061 12.2178C8.40822 12.1909 8.8631 12.1372 9.33655 12.0925C9.81 12.0478 10.237 11.9762 10.2835 11.9315C10.3392 11.8778 10.2463 11.7615 9.99567 11.6005C9.62434 11.3679 9.06734 10.7149 9.06734 10.5181C9.06734 10.4018 9.253 10.205 9.37369 10.205C9.41082 10.205 9.72645 10.4644 10.0607 10.7775Z" fill="#656AC6"/>
<path d="M11.8245 9.49823C11.8802 9.61453 11.9637 10.0439 11.9916 10.4465L12.0187 10.7179C12.044 10.9701 11.8459 11.189 11.5924 11.189V11.189C11.3325 11.189 11.1004 11.1532 11.0725 11.1174C11.0168 11.028 11.1654 9.34616 11.2396 9.22986C11.3325 9.08673 11.7038 9.2567 11.8245 9.49823Z" fill="#656AC6"/>
<path d="M14.0618 10.6791C14.0804 10.8491 14.0247 10.9474 13.8297 11.0727C13.6905 11.1532 13.3563 11.3769 13.0963 11.5647C12.5765 11.9404 12.4558 11.9762 12.3722 11.7615C12.2794 11.5289 12.2979 11.5021 12.8921 11.0459C13.8483 10.3123 14.0154 10.2586 14.0618 10.6791Z" fill="#656AC6"/>
<path d="M14.7859 12.1909C14.8509 12.2356 14.9159 12.3698 14.9437 12.4951C15.0087 12.8261 14.7302 12.9245 13.6626 12.9245L13.1072 12.9299C12.8971 12.9319 12.7161 12.7823 12.6786 12.5756V12.5756C12.5765 12.012 12.6693 11.9762 13.7462 12.0478C14.266 12.0746 14.7302 12.1462 14.7859 12.1909Z" fill="#656AC6"/>
<path d="M11.8988 12.4414C11.8988 12.6829 11.8431 12.7724 11.6667 12.8619C11.2768 13.0497 11.1004 12.7903 11.2953 12.3072C11.3696 12.1194 11.4439 12.0746 11.6481 12.1015C11.8709 12.1283 11.8988 12.1641 11.8988 12.4414Z" fill="#656AC6"/>
<path d="M13.3841 13.7833C13.8204 13.989 14.1546 14.4632 14.0432 14.7315C13.9875 14.8657 13.8947 14.812 13.4305 14.3647C12.9385 13.8906 12.7528 13.6044 12.9385 13.6044C12.9756 13.6044 13.1706 13.6849 13.3841 13.7833Z" fill="#656AC6"/>
<path d="M18.2579 8.47841C18.5271 8.80941 18.5085 9.3551 18.2207 9.53402C17.8216 9.7845 17.4966 9.67716 17.2553 9.22092C17.0232 8.77363 17.0417 8.46053 17.3388 8.21899C17.5709 8.03113 17.9887 8.14742 18.2579 8.47841Z" fill="#656AC6"/>
<path d="M14.5909 44.4226C15.2872 45.8003 15.7978 46.6054 16.754 47.831C17.9701 49.3965 18.852 50.2911 20.9129 52.0265L21.0946 52.182C21.3575 52.4068 21.3004 52.8281 20.9872 52.9748V52.9748V52.9748C20.5702 53.1619 20.084 53.1034 19.7233 52.8227L19.5854 52.7154C17.8773 51.3735 15.5471 48.8418 14.5352 47.2316C13.904 46.2118 12.7157 43.9038 12.5486 43.3581C12.3444 42.6871 12.3722 42.5261 12.8457 41.7747V41.7747C13.0181 41.5002 13.4313 41.5464 13.5388 41.8523L13.6812 42.2577C13.904 42.9018 14.3124 43.8769 14.5909 44.4226Z" fill="#656AC6"/>
<path d="M61.212 34.9132C61.4905 35.1637 61.4813 35.28 61.1378 35.5573C60.7943 35.8436 60.6179 35.8525 60.3394 35.5931C60.0795 35.3605 60.0702 35.2532 60.3208 34.949C60.5529 34.6628 60.915 34.6449 61.212 34.9132Z" fill="#656AC6"/>
<path d="M30.2056 36.2462C30.6048 36.3893 31.0596 36.8545 31.3567 37.427V37.427C31.5396 37.7678 31.6367 38.148 31.6396 38.5347L31.6723 42.9018L31.7165 47.6254C31.7178 47.7583 31.6103 47.8667 31.4774 47.8667V47.8667C30.9297 47.8667 29.0637 47.3032 28.1911 46.8827V46.8827C27.8498 46.7183 27.6311 46.3749 27.6264 45.9961L27.6248 45.8718C27.5969 42.6692 27.6619 37.7938 27.7269 37.6149C28.0425 36.8187 28.8781 36.1478 29.5465 36.1478C29.7693 36.1478 30.057 36.1925 30.2056 36.2462Z" fill="#656AC6"/>
<path d="M24.9048 36.0136C25.4246 36.3088 25.8981 36.926 26.1302 37.6238C26.2973 38.1158 26.3158 38.4647 26.3344 41.7836C26.3623 46.006 26.3715 45.8092 26.223 45.8092C26.0466 45.8092 24.9698 44.9504 24.3756 44.3332C24.0878 44.038 23.5958 43.4565 23.2802 43.045C21.9434 41.2916 21.4885 40.227 21.4699 38.7868C21.4606 37.9459 21.4792 37.8564 21.767 37.2839C22.1012 36.6398 22.7417 36.0136 23.2895 35.8168C23.7258 35.6557 24.4313 35.7452 24.9048 36.0136Z" fill="#656AC6"/>
</g>
<path d="M71.33 31C71.2367 31 71.1527 30.9673 71.078 30.902C71.0127 30.8367 70.98 30.7527 70.98 30.65V21.55C70.98 21.4473 71.0127 21.3633 71.078 21.298C71.1527 21.2327 71.2367 21.2 71.33 21.2H72.842C72.9913 21.2 73.1033 21.242 73.178 21.326C73.262 21.4007 73.3133 21.4613 73.332 21.508L75.796 25.932L78.26 21.508C78.288 21.4613 78.3347 21.4007 78.4 21.326C78.4747 21.242 78.5913 21.2 78.75 21.2H80.248C80.3507 21.2 80.4347 21.2327 80.5 21.298C80.5747 21.3633 80.612 21.4473 80.612 21.55V30.65C80.612 30.7527 80.5747 30.8367 80.5 30.902C80.4347 30.9673 80.3507 31 80.248 31H78.582C78.4793 31 78.3907 30.9673 78.316 30.902C78.2507 30.8367 78.218 30.7527 78.218 30.65V25.4L76.636 28.326C76.5987 28.41 76.5427 28.4847 76.468 28.55C76.3933 28.6153 76.2907 28.648 76.16 28.648H75.432C75.3013 28.648 75.1987 28.6153 75.124 28.55C75.0493 28.4847 74.9887 28.41 74.942 28.326L73.36 25.4V30.65C73.36 30.7527 73.3273 30.8367 73.262 30.902C73.1967 30.9673 73.1127 31 73.01 31H71.33ZM87.2641 31.14C86.4054 31.14 85.6587 31 85.0241 30.72C84.3894 30.44 83.8947 30.02 83.5401 29.46C83.1854 28.8907 82.9894 28.1813 82.9521 27.332C82.9427 26.9307 82.9381 26.5293 82.9381 26.128C82.9381 25.7267 82.9427 25.3207 82.9521 24.91C82.9894 24.07 83.1854 23.3653 83.5401 22.796C83.9041 22.2173 84.4034 21.7833 85.0381 21.494C85.6727 21.2047 86.4147 21.06 87.2641 21.06C88.1041 21.06 88.8414 21.2047 89.4761 21.494C90.1201 21.7833 90.6241 22.2173 90.9881 22.796C91.3521 23.3653 91.5481 24.07 91.5761 24.91C91.5947 25.3207 91.6041 25.7267 91.6041 26.128C91.6041 26.5293 91.5947 26.9307 91.5761 27.332C91.5387 28.1813 91.3427 28.8907 90.9881 29.46C90.6334 30.02 90.1387 30.44 89.5041 30.72C88.8694 31 88.1227 31.14 87.2641 31.14ZM87.2641 29.124C87.7587 29.124 88.1601 28.9747 88.4681 28.676C88.7854 28.3773 88.9534 27.9013 88.9721 27.248C88.9907 26.8373 89.0001 26.45 89.0001 26.086C89.0001 25.722 88.9907 25.344 88.9721 24.952C88.9534 24.5133 88.8694 24.1587 88.7201 23.888C88.5801 23.608 88.3841 23.4027 88.1321 23.272C87.8801 23.1413 87.5907 23.076 87.2641 23.076C86.9467 23.076 86.6621 23.1413 86.4101 23.272C86.1581 23.4027 85.9574 23.608 85.8081 23.888C85.6587 24.1587 85.5747 24.5133 85.5561 24.952C85.5467 25.344 85.5421 25.722 85.5421 26.086C85.5421 26.45 85.5467 26.8373 85.5561 27.248C85.5841 27.9013 85.7521 28.3773 86.0601 28.676C86.3681 28.9747 86.7694 29.124 87.2641 29.124ZM99.6249 31C99.5315 31 99.4475 30.9673 99.3729 30.902C99.3075 30.8367 99.2749 30.7527 99.2749 30.65V27.64H97.4129C96.7315 27.64 96.1295 27.5093 95.6069 27.248C95.0842 26.9867 94.6735 26.618 94.3749 26.142C94.0855 25.666 93.9409 25.1013 93.9409 24.448C93.9409 23.8227 94.0855 23.2673 94.3749 22.782C94.6735 22.2873 95.1029 21.9 95.6629 21.62C96.2229 21.34 96.9089 21.2 97.7209 21.2H101.445C101.538 21.2 101.618 21.2327 101.683 21.298C101.758 21.3633 101.795 21.4473 101.795 21.55V30.65C101.795 30.7527 101.758 30.8367 101.683 30.902C101.618 30.9673 101.538 31 101.445 31H99.6249ZM94.0249 31C93.9409 31 93.8709 30.972 93.8149 30.916C93.7589 30.8507 93.7309 30.7807 93.7309 30.706C93.7309 30.6593 93.7449 30.608 93.7729 30.552L95.9009 26.912L98.2529 27.332L96.4609 30.622C96.4049 30.7153 96.3349 30.804 96.2509 30.888C96.1669 30.9627 96.0409 31 95.8729 31H94.0249ZM97.7769 25.666H99.2749V23.146H97.7769C97.3849 23.146 97.0815 23.272 96.8669 23.524C96.6522 23.7667 96.5449 24.0747 96.5449 24.448C96.5449 24.8307 96.6475 25.1293 96.8529 25.344C97.0582 25.5587 97.3662 25.666 97.7769 25.666ZM112.142 31.14C111.255 31.14 110.494 30.9953 109.86 30.706C109.234 30.4167 108.744 29.992 108.39 29.432C108.044 28.872 107.853 28.1767 107.816 27.346C107.806 26.9633 107.802 26.5527 107.802 26.114C107.802 25.6753 107.806 25.2553 107.816 24.854C107.853 24.042 108.049 23.356 108.404 22.796C108.758 22.2267 109.253 21.7973 109.888 21.508C110.522 21.2093 111.274 21.06 112.142 21.06C112.758 21.06 113.327 21.1393 113.85 21.298C114.372 21.4473 114.83 21.6713 115.222 21.97C115.614 22.2593 115.917 22.614 116.132 23.034C116.356 23.4447 116.472 23.9113 116.482 24.434C116.491 24.518 116.463 24.588 116.398 24.644C116.342 24.7 116.272 24.728 116.188 24.728H114.298C114.176 24.728 114.083 24.7047 114.018 24.658C113.952 24.602 113.896 24.504 113.85 24.364C113.719 23.8693 113.504 23.5333 113.206 23.356C112.916 23.1693 112.557 23.076 112.128 23.076C111.614 23.076 111.208 23.2207 110.91 23.51C110.611 23.79 110.448 24.2613 110.42 24.924C110.392 25.6893 110.392 26.4733 110.42 27.276C110.448 27.9387 110.611 28.4147 110.91 28.704C111.208 28.984 111.614 29.124 112.128 29.124C112.557 29.124 112.921 29.0307 113.22 28.844C113.518 28.6573 113.728 28.3213 113.85 27.836C113.887 27.696 113.938 27.6027 114.004 27.556C114.078 27.5 114.176 27.472 114.298 27.472H116.188C116.272 27.472 116.342 27.5 116.398 27.556C116.463 27.612 116.491 27.682 116.482 27.766C116.472 28.2887 116.356 28.76 116.132 29.18C115.917 29.5907 115.614 29.9453 115.222 30.244C114.83 30.5333 114.372 30.7573 113.85 30.916C113.327 31.0653 112.758 31.14 112.142 31.14ZM119.004 31C118.901 31 118.817 30.9673 118.752 30.902C118.686 30.8367 118.654 30.7527 118.654 30.65V21.55C118.654 21.4473 118.686 21.3633 118.752 21.298C118.817 21.2327 118.901 21.2 119.004 21.2H125.542C125.644 21.2 125.728 21.2327 125.794 21.298C125.859 21.3633 125.892 21.4473 125.892 21.55V22.866C125.892 22.9687 125.859 23.0527 125.794 23.118C125.728 23.1833 125.644 23.216 125.542 23.216H121.076V25.106H125.234C125.336 25.106 125.42 25.1433 125.486 25.218C125.551 25.2833 125.584 25.3673 125.584 25.47V26.688C125.584 26.7813 125.551 26.8653 125.486 26.94C125.42 27.0053 125.336 27.038 125.234 27.038H121.076V28.984H125.654C125.756 28.984 125.84 29.0167 125.906 29.082C125.971 29.1473 126.004 29.2313 126.004 29.334V30.65C126.004 30.7527 125.971 30.8367 125.906 30.902C125.84 30.9673 125.756 31 125.654 31H119.004ZM128.645 31C128.552 31 128.468 30.9673 128.393 30.902C128.328 30.8367 128.295 30.7527 128.295 30.65V21.55C128.295 21.4473 128.328 21.3633 128.393 21.298C128.468 21.2327 128.552 21.2 128.645 21.2H130.157C130.307 21.2 130.419 21.242 130.493 21.326C130.577 21.4007 130.629 21.4613 130.647 21.508L133.111 25.932L135.575 21.508C135.603 21.4613 135.65 21.4007 135.715 21.326C135.79 21.242 135.907 21.2 136.065 21.2H137.563C137.666 21.2 137.75 21.2327 137.815 21.298C137.89 21.3633 137.927 21.4473 137.927 21.55V30.65C137.927 30.7527 137.89 30.8367 137.815 30.902C137.75 30.9673 137.666 31 137.563 31H135.897C135.795 31 135.706 30.9673 135.631 30.902C135.566 30.8367 135.533 30.7527 135.533 30.65V25.4L133.951 28.326C133.914 28.41 133.858 28.4847 133.783 28.55C133.709 28.6153 133.606 28.648 133.475 28.648H132.747C132.617 28.648 132.514 28.6153 132.439 28.55C132.365 28.4847 132.304 28.41 132.257 28.326L130.675 25.4V30.65C130.675 30.7527 130.643 30.8367 130.577 30.902C130.512 30.9673 130.428 31 130.325 31H128.645ZM140.925 31C140.823 31 140.739 30.9673 140.673 30.902C140.608 30.8367 140.575 30.7527 140.575 30.65V21.55C140.575 21.4473 140.608 21.3633 140.673 21.298C140.739 21.2327 140.823 21.2 140.925 21.2H142.731C142.834 21.2 142.918 21.2327 142.983 21.298C143.049 21.3633 143.081 21.4473 143.081 21.55V24.56H144.565C145.76 24.56 146.689 24.826 147.351 25.358C148.014 25.8807 148.345 26.674 148.345 27.738C148.345 28.382 148.201 28.9513 147.911 29.446C147.622 29.9407 147.193 30.3233 146.623 30.594C146.063 30.8647 145.377 31 144.565 31H140.925ZM143.081 29.054H144.509C144.911 29.054 145.214 28.9327 145.419 28.69C145.634 28.438 145.741 28.1207 145.741 27.738C145.741 27.318 145.634 27.0053 145.419 26.8C145.205 26.5947 144.901 26.492 144.509 26.492H143.081V29.054ZM156.188 31C156.095 31 156.011 30.9673 155.936 30.902C155.871 30.8367 155.838 30.7527 155.838 30.65V27.64H153.976C153.295 27.64 152.693 27.5093 152.17 27.248C151.647 26.9867 151.237 26.618 150.938 26.142C150.649 25.666 150.504 25.1013 150.504 24.448C150.504 23.8227 150.649 23.2673 150.938 22.782C151.237 22.2873 151.666 21.9 152.226 21.62C152.786 21.34 153.472 21.2 154.284 21.2H158.008C158.101 21.2 158.181 21.2327 158.246 21.298C158.321 21.3633 158.358 21.4473 158.358 21.55V30.65C158.358 30.7527 158.321 30.8367 158.246 30.902C158.181 30.9673 158.101 31 158.008 31H156.188ZM150.588 31C150.504 31 150.434 30.972 150.378 30.916C150.322 30.8507 150.294 30.7807 150.294 30.706C150.294 30.6593 150.308 30.608 150.336 30.552L152.464 26.912L154.816 27.332L153.024 30.622C152.968 30.7153 152.898 30.804 152.814 30.888C152.73 30.9627 152.604 31 152.436 31H150.588ZM154.34 25.666H155.838V23.146H154.34C153.948 23.146 153.645 23.272 153.43 23.524C153.215 23.7667 153.108 24.0747 153.108 24.448C153.108 24.8307 153.211 25.1293 153.416 25.344C153.621 25.5587 153.929 25.666 154.34 25.666ZM164.855 27.808C164.752 27.808 164.668 27.7753 164.603 27.71C164.538 27.6447 164.505 27.5607 164.505 27.458V26.142C164.505 26.0393 164.538 25.9553 164.603 25.89C164.668 25.8247 164.752 25.792 164.855 25.792H169.237C169.34 25.792 169.424 25.8247 169.489 25.89C169.554 25.9553 169.587 26.0393 169.587 26.142V27.458C169.587 27.5607 169.554 27.6447 169.489 27.71C169.424 27.7753 169.34 27.808 169.237 27.808H164.855Z" fill="#333333"/>
<path d="M71.33 48C71.2367 48 71.1527 47.9673 71.078 47.902C71.0127 47.8367 70.98 47.7527 70.98 47.65V38.55C70.98 38.4473 71.0127 38.3633 71.078 38.298C71.1527 38.2327 71.2367 38.2 71.33 38.2H72.842C72.9913 38.2 73.1033 38.242 73.178 38.326C73.262 38.4007 73.3133 38.4613 73.332 38.508L75.796 42.932L78.26 38.508C78.288 38.4613 78.3347 38.4007 78.4 38.326C78.4747 38.242 78.5913 38.2 78.75 38.2H80.248C80.3507 38.2 80.4347 38.2327 80.5 38.298C80.5747 38.3633 80.612 38.4473 80.612 38.55V47.65C80.612 47.7527 80.5747 47.8367 80.5 47.902C80.4347 47.9673 80.3507 48 80.248 48H78.582C78.4793 48 78.3907 47.9673 78.316 47.902C78.2507 47.8367 78.218 47.7527 78.218 47.65V42.4L76.636 45.326C76.5987 45.41 76.5427 45.4847 76.468 45.55C76.3933 45.6153 76.2907 45.648 76.16 45.648H75.432C75.3013 45.648 75.1987 45.6153 75.124 45.55C75.0493 45.4847 74.9887 45.41 74.942 45.326L73.36 42.4V47.65C73.36 47.7527 73.3273 47.8367 73.262 47.902C73.1967 47.9673 73.1127 48 73.01 48H71.33ZM87.2641 48.14C86.4054 48.14 85.6587 48 85.0241 47.72C84.3894 47.44 83.8947 47.02 83.5401 46.46C83.1854 45.8907 82.9894 45.1813 82.9521 44.332C82.9427 43.9307 82.9381 43.5293 82.9381 43.128C82.9381 42.7267 82.9427 42.3207 82.9521 41.91C82.9894 41.07 83.1854 40.3653 83.5401 39.796C83.9041 39.2173 84.4034 38.7833 85.0381 38.494C85.6727 38.2047 86.4147 38.06 87.2641 38.06C88.1041 38.06 88.8414 38.2047 89.4761 38.494C90.1201 38.7833 90.6241 39.2173 90.9881 39.796C91.3521 40.3653 91.5481 41.07 91.5761 41.91C91.5947 42.3207 91.6041 42.7267 91.6041 43.128C91.6041 43.5293 91.5947 43.9307 91.5761 44.332C91.5387 45.1813 91.3427 45.8907 90.9881 46.46C90.6334 47.02 90.1387 47.44 89.5041 47.72C88.8694 48 88.1227 48.14 87.2641 48.14ZM87.2641 46.124C87.7587 46.124 88.1601 45.9747 88.4681 45.676C88.7854 45.3773 88.9534 44.9013 88.9721 44.248C88.9907 43.8373 89.0001 43.45 89.0001 43.086C89.0001 42.722 88.9907 42.344 88.9721 41.952C88.9534 41.5133 88.8694 41.1587 88.7201 40.888C88.5801 40.608 88.3841 40.4027 88.1321 40.272C87.8801 40.1413 87.5907 40.076 87.2641 40.076C86.9467 40.076 86.6621 40.1413 86.4101 40.272C86.1581 40.4027 85.9574 40.608 85.8081 40.888C85.6587 41.1587 85.5747 41.5133 85.5561 41.952C85.5467 42.344 85.5421 42.722 85.5421 43.086C85.5421 43.45 85.5467 43.8373 85.5561 44.248C85.5841 44.9013 85.7521 45.3773 86.0601 45.676C86.3681 45.9747 86.7694 46.124 87.2641 46.124ZM94.2769 48C94.1742 48 94.0902 47.9673 94.0249 47.902C93.9595 47.8273 93.9269 47.7433 93.9269 47.65V38.55C93.9269 38.4473 93.9595 38.3633 94.0249 38.298C94.0995 38.2327 94.1835 38.2 94.2769 38.2H96.0829C96.1855 38.2 96.2695 38.2327 96.3349 38.298C96.4002 38.3633 96.4329 38.4473 96.4329 38.55V44.192L100.423 38.466C100.47 38.3913 100.53 38.3307 100.605 38.284C100.68 38.228 100.778 38.2 100.899 38.2H102.523C102.616 38.2 102.696 38.2327 102.761 38.298C102.836 38.3633 102.873 38.4473 102.873 38.55V47.65C102.873 47.7527 102.836 47.8367 102.761 47.902C102.696 47.9673 102.616 48 102.523 48H100.717C100.614 48 100.526 47.9673 100.451 47.902C100.386 47.8367 100.353 47.7527 100.353 47.65V42.218L96.3769 47.734C96.3302 47.7993 96.2695 47.86 96.1949 47.916C96.1295 47.972 96.0315 48 95.9009 48H94.2769ZM98.4489 37.626C97.8515 37.626 97.3709 37.5373 97.0069 37.36C96.6429 37.1733 96.3769 36.9307 96.2089 36.632C96.0409 36.324 95.9569 35.988 95.9569 35.624C95.9569 35.5493 95.9802 35.4887 96.0269 35.442C96.0735 35.386 96.1389 35.358 96.2229 35.358H97.3429C97.4269 35.358 97.4922 35.386 97.5389 35.442C97.5855 35.4887 97.6089 35.5493 97.6089 35.624C97.6089 35.7453 97.6322 35.8667 97.6789 35.988C97.7255 36.1 97.8095 36.1933 97.9309 36.268C98.0522 36.3333 98.2249 36.366 98.4489 36.366C98.6729 36.366 98.8409 36.3333 98.9529 36.268C99.0742 36.1933 99.1582 36.1 99.2049 35.988C99.2515 35.8667 99.2749 35.7453 99.2749 35.624C99.2749 35.5493 99.2982 35.4887 99.3449 35.442C99.3915 35.386 99.4569 35.358 99.5409 35.358H100.661C100.745 35.358 100.81 35.386 100.857 35.442C100.904 35.4887 100.927 35.5493 100.927 35.624C100.927 35.988 100.843 36.324 100.675 36.632C100.516 36.9307 100.255 37.1733 99.8909 37.36C99.5269 37.5373 99.0462 37.626 98.4489 37.626ZM109.554 48C109.451 48 109.367 47.9673 109.302 47.902C109.236 47.8367 109.204 47.7527 109.204 47.65V38.55C109.204 38.4473 109.236 38.3633 109.302 38.298C109.367 38.2327 109.451 38.2 109.554 38.2H111.36C111.462 38.2 111.546 38.2327 111.612 38.298C111.677 38.3633 111.71 38.4473 111.71 38.55V41.924H112.564L114.636 38.466C114.682 38.3913 114.748 38.3307 114.832 38.284C114.916 38.228 115.023 38.2 115.154 38.2H117.17C117.263 38.2 117.338 38.2327 117.394 38.298C117.45 38.354 117.478 38.4193 117.478 38.494C117.478 38.55 117.459 38.606 117.422 38.662L114.818 42.918L117.674 47.524C117.702 47.5613 117.716 47.6127 117.716 47.678C117.716 47.7713 117.683 47.8507 117.618 47.916C117.562 47.972 117.487 48 117.394 48H115.322C115.172 48 115.06 47.9673 114.986 47.902C114.92 47.8367 114.869 47.7807 114.832 47.734L112.662 44.164H111.71V47.65C111.71 47.7527 111.677 47.8367 111.612 47.902C111.546 47.9673 111.462 48 111.36 48H109.554ZM123.232 48.14C122.373 48.14 121.627 48 120.992 47.72C120.357 47.44 119.863 47.02 119.508 46.46C119.153 45.8907 118.957 45.1813 118.92 44.332C118.911 43.9307 118.906 43.5293 118.906 43.128C118.906 42.7267 118.911 42.3207 118.92 41.91C118.957 41.07 119.153 40.3653 119.508 39.796C119.872 39.2173 120.371 38.7833 121.006 38.494C121.641 38.2047 122.383 38.06 123.232 38.06C124.072 38.06 124.809 38.2047 125.444 38.494C126.088 38.7833 126.592 39.2173 126.956 39.796C127.32 40.3653 127.516 41.07 127.544 41.91C127.563 42.3207 127.572 42.7267 127.572 43.128C127.572 43.5293 127.563 43.9307 127.544 44.332C127.507 45.1813 127.311 45.8907 126.956 46.46C126.601 47.02 126.107 47.44 125.472 47.72C124.837 48 124.091 48.14 123.232 48.14ZM123.232 46.124C123.727 46.124 124.128 45.9747 124.436 45.676C124.753 45.3773 124.921 44.9013 124.94 44.248C124.959 43.8373 124.968 43.45 124.968 43.086C124.968 42.722 124.959 42.344 124.94 41.952C124.921 41.5133 124.837 41.1587 124.688 40.888C124.548 40.608 124.352 40.4027 124.1 40.272C123.848 40.1413 123.559 40.076 123.232 40.076C122.915 40.076 122.63 40.1413 122.378 40.272C122.126 40.4027 121.925 40.608 121.776 40.888C121.627 41.1587 121.543 41.5133 121.524 41.952C121.515 42.344 121.51 42.722 121.51 43.086C121.51 43.45 121.515 43.8373 121.524 44.248C121.552 44.9013 121.72 45.3773 122.028 45.676C122.336 45.9747 122.737 46.124 123.232 46.124ZM133.913 48.14C133.026 48.14 132.266 47.9953 131.631 47.706C131.006 47.4167 130.516 46.992 130.161 46.432C129.816 45.872 129.624 45.1767 129.587 44.346C129.578 43.9633 129.573 43.5527 129.573 43.114C129.573 42.6753 129.578 42.2553 129.587 41.854C129.624 41.042 129.82 40.356 130.175 39.796C130.53 39.2267 131.024 38.7973 131.659 38.508C132.294 38.2093 133.045 38.06 133.913 38.06C134.529 38.06 135.098 38.1393 135.621 38.298C136.144 38.4473 136.601 38.6713 136.993 38.97C137.385 39.2593 137.688 39.614 137.903 40.034C138.127 40.4447 138.244 40.9113 138.253 41.434C138.262 41.518 138.234 41.588 138.169 41.644C138.113 41.7 138.043 41.728 137.959 41.728H136.069C135.948 41.728 135.854 41.7047 135.789 41.658C135.724 41.602 135.668 41.504 135.621 41.364C135.49 40.8693 135.276 40.5333 134.977 40.356C134.688 40.1693 134.328 40.076 133.899 40.076C133.386 40.076 132.98 40.2207 132.681 40.51C132.382 40.79 132.219 41.2613 132.191 41.924C132.163 42.6893 132.163 43.4733 132.191 44.276C132.219 44.9387 132.382 45.4147 132.681 45.704C132.98 45.984 133.386 46.124 133.899 46.124C134.328 46.124 134.692 46.0307 134.991 45.844C135.29 45.6573 135.5 45.3213 135.621 44.836C135.658 44.696 135.71 44.6027 135.775 44.556C135.85 44.5 135.948 44.472 136.069 44.472H137.959C138.043 44.472 138.113 44.5 138.169 44.556C138.234 44.612 138.262 44.682 138.253 44.766C138.244 45.2887 138.127 45.76 137.903 46.18C137.688 46.5907 137.385 46.9453 136.993 47.244C136.601 47.5333 136.144 47.7573 135.621 47.916C135.098 48.0653 134.529 48.14 133.913 48.14ZM140.775 48C140.682 48 140.598 47.9673 140.523 47.902C140.458 47.8367 140.425 47.7527 140.425 47.65V38.55C140.425 38.4473 140.458 38.3633 140.523 38.298C140.598 38.2327 140.682 38.2 140.775 38.2H142.287C142.436 38.2 142.548 38.242 142.623 38.326C142.707 38.4007 142.758 38.4613 142.777 38.508L145.241 42.932L147.705 38.508C147.733 38.4613 147.78 38.4007 147.845 38.326C147.92 38.242 148.036 38.2 148.195 38.2H149.693C149.796 38.2 149.88 38.2327 149.945 38.298C150.02 38.3633 150.057 38.4473 150.057 38.55V47.65C150.057 47.7527 150.02 47.8367 149.945 47.902C149.88 47.9673 149.796 48 149.693 48H148.027C147.924 48 147.836 47.9673 147.761 47.902C147.696 47.8367 147.663 47.7527 147.663 47.65V42.4L146.081 45.326C146.044 45.41 145.988 45.4847 145.913 45.55C145.838 45.6153 145.736 45.648 145.605 45.648H144.877C144.746 45.648 144.644 45.6153 144.569 45.55C144.494 45.4847 144.434 45.41 144.387 45.326L142.805 42.4V47.65C142.805 47.7527 142.772 47.8367 142.707 47.902C142.642 47.9673 142.558 48 142.455 48H140.775ZM156.709 48.14C155.85 48.14 155.104 48 154.469 47.72C153.834 47.44 153.34 47.02 152.985 46.46C152.63 45.8907 152.434 45.1813 152.397 44.332C152.388 43.9307 152.383 43.5293 152.383 43.128C152.383 42.7267 152.388 42.3207 152.397 41.91C152.434 41.07 152.63 40.3653 152.985 39.796C153.349 39.2173 153.848 38.7833 154.483 38.494C155.118 38.2047 155.86 38.06 156.709 38.06C157.549 38.06 158.286 38.2047 158.921 38.494C159.565 38.7833 160.069 39.2173 160.433 39.796C160.797 40.3653 160.993 41.07 161.021 41.91C161.04 42.3207 161.049 42.7267 161.049 43.128C161.049 43.5293 161.04 43.9307 161.021 44.332C160.984 45.1813 160.788 45.8907 160.433 46.46C160.078 47.02 159.584 47.44 158.949 47.72C158.314 48 157.568 48.14 156.709 48.14ZM156.709 46.124C157.204 46.124 157.605 45.9747 157.913 45.676C158.23 45.3773 158.398 44.9013 158.417 44.248C158.436 43.8373 158.445 43.45 158.445 43.086C158.445 42.722 158.436 42.344 158.417 41.952C158.398 41.5133 158.314 41.1587 158.165 40.888C158.025 40.608 157.829 40.4027 157.577 40.272C157.325 40.1413 157.036 40.076 156.709 40.076C156.392 40.076 156.107 40.1413 155.855 40.272C155.603 40.4027 155.402 40.608 155.253 40.888C155.104 41.1587 155.02 41.5133 155.001 41.952C154.992 42.344 154.987 42.722 154.987 43.086C154.987 43.45 154.992 43.8373 155.001 44.248C155.029 44.9013 155.197 45.3773 155.505 45.676C155.813 45.9747 156.214 46.124 156.709 46.124ZM167.39 48.14C166.503 48.14 165.742 47.9953 165.108 47.706C164.482 47.4167 163.992 46.992 163.638 46.432C163.292 45.872 163.101 45.1767 163.064 44.346C163.054 43.9633 163.05 43.5527 163.05 43.114C163.05 42.6753 163.054 42.2553 163.064 41.854C163.101 41.042 163.297 40.356 163.652 39.796C164.006 39.2267 164.501 38.7973 165.136 38.508C165.77 38.2093 166.522 38.06 167.39 38.06C168.006 38.06 168.575 38.1393 169.098 38.298C169.62 38.4473 170.078 38.6713 170.47 38.97C170.862 39.2593 171.165 39.614 171.38 40.034C171.604 40.4447 171.72 40.9113 171.73 41.434C171.739 41.518 171.711 41.588 171.646 41.644C171.59 41.7 171.52 41.728 171.436 41.728H169.546C169.424 41.728 169.331 41.7047 169.266 41.658C169.2 41.602 169.144 41.504 169.098 41.364C168.967 40.8693 168.752 40.5333 168.454 40.356C168.164 40.1693 167.805 40.076 167.376 40.076C166.862 40.076 166.456 40.2207 166.158 40.51C165.859 40.79 165.696 41.2613 165.668 41.924C165.64 42.6893 165.64 43.4733 165.668 44.276C165.696 44.9387 165.859 45.4147 166.158 45.704C166.456 45.984 166.862 46.124 167.376 46.124C167.805 46.124 168.169 46.0307 168.468 45.844C168.766 45.6573 168.976 45.3213 169.098 44.836C169.135 44.696 169.186 44.6027 169.252 44.556C169.326 44.5 169.424 44.472 169.546 44.472H171.436C171.52 44.472 171.59 44.5 171.646 44.556C171.711 44.612 171.739 44.682 171.73 44.766C171.72 45.2887 171.604 45.76 171.38 46.18C171.165 46.5907 170.862 46.9453 170.47 47.244C170.078 47.5333 169.62 47.7573 169.098 47.916C168.575 48.0653 168.006 48.14 167.39 48.14Z" fill="#656AC6"/>
<defs>
<clipPath id="clip0_6_106">
<rect width="70" height="70" fill="white"/>
</clipPath>
</defs>
</svg>
