<svg width="173" height="70" viewBox="0 0 173 70" fill="none" xmlns="http://www.w3.org/2000/svg">
<g clip-path="url(#clip0_3_93)">
<path d="M42.0604 31.4602C42.9609 31.7554 44.0471 33.0078 44.3441 34.0813C44.4184 34.3407 44.4555 35.772 44.4648 38.4647C44.4834 40.6564 44.5205 42.5172 44.5577 42.5977C44.6134 42.705 44.5484 42.8482 44.3349 43.0718C43.9728 43.4744 42.3018 44.691 40.9279 45.5498C39.9067 46.1939 38.1707 47.0616 37.9015 47.0616C37.7622 47.0616 37.7529 46.507 37.7529 40.9964C37.7529 37.6685 37.7994 34.6806 37.8458 34.3675C38.0222 33.1867 38.9041 32.0327 40.0274 31.5317C40.5937 31.2723 41.4106 31.2455 42.0604 31.4602Z" fill="#656AC6"/>
<path d="M34.1046 31.3618C34.6894 31.5317 35.4971 32.0953 35.7756 32.5516C35.8963 32.7305 36.0819 33.142 36.1933 33.464C36.3753 33.9985 36.3874 34.1588 36.4184 39.483L36.4249 40.6184L36.4254 40.7012C36.4533 44.36 36.444 47.4373 36.4161 47.5447C36.3419 47.8489 35.1722 48.153 33.9282 48.2067C33.3804 48.2262 32.9256 47.7874 32.9256 47.2392V43.3312C32.9256 40.1823 32.8885 38.2232 32.8235 37.8832C32.6935 37.2123 32.2665 36.4251 31.6909 35.8257L31.4513 35.5708C31.3487 35.4616 31.3804 35.2843 31.5145 35.2174C31.9416 35.0027 32.4243 34.4212 32.6471 33.8576C32.8977 33.2135 32.9256 32.2474 32.7121 31.7017C32.5728 31.3528 32.5821 31.326 32.7214 31.2902C33.0648 31.2007 33.659 31.2365 34.1046 31.3618Z" fill="#656AC6"/>
<path d="M30.2056 36.2462C30.6048 36.3893 31.0596 36.8545 31.3567 37.427C31.5396 37.7678 31.6367 38.148 31.6396 38.5347L31.6723 42.9018L31.7165 47.6254C31.7177 47.7583 31.6103 47.8667 31.4774 47.8667C30.9297 47.8667 29.0637 47.3032 28.1911 46.8827C27.8498 46.7183 27.6311 46.3749 27.6263 45.9961L27.6248 45.8718C27.5969 42.6692 27.6619 37.7938 27.7269 37.6149C28.0425 36.8187 28.878 36.1478 29.5464 36.1478C29.7692 36.1478 30.057 36.1925 30.2056 36.2462Z" fill="#656AC6"/>
<path d="M30.3355 31.2455C31.106 31.4959 31.5331 32.0595 31.5331 32.8289C31.5331 33.5893 31.2082 34.0992 30.5119 34.4481C29.5372 34.9311 28.4232 34.6001 27.9961 33.6966C27.3092 32.2474 28.7574 30.7266 30.3355 31.2455Z" fill="#656AC6"/>
<path d="M34.3367 23.9994C34.9958 24.2946 35.5714 24.8403 35.887 25.4933C36.0819 25.8959 36.1284 26.1285 36.1284 26.6652C36.1284 27.5151 35.8499 28.1323 35.135 28.8301C34.4816 29.4732 33.4953 29.6513 32.5808 29.5853C32.2963 29.5648 32.018 29.5165 31.8023 29.4205C31.0782 29.0985 30.5583 28.6243 30.2334 27.9624C29.8806 27.2556 29.8435 26.3253 30.1406 25.5738C30.3262 25.0908 31.0504 24.3035 31.5331 24.062C32.3779 23.6505 33.4733 23.6236 34.3367 23.9994Z" fill="#656AC6"/>
<path d="M41.9769 24.2588C44.4091 24.9834 44.6783 28.2755 42.3946 29.4742C40.7051 30.3598 38.6441 29.34 38.2078 27.3898C38.0036 26.4774 38.4399 25.2518 39.164 24.6882C39.9717 24.0709 40.8814 23.9278 41.9769 24.2588Z" fill="#656AC6"/>
<path d="M60.5715 13.7922C62.4467 13.989 63.6536 14.4184 64.5262 15.2146C65.1668 15.7961 65.436 16.3776 65.4917 17.2721C65.5659 18.5603 64.8511 20.8147 63.8021 22.6396C63.5236 23.1048 63.1058 23.8473 62.8645 24.2946C61.7041 26.3879 61.4998 26.7099 59.1511 30.1362C57.7029 32.2474 57.3594 32.6768 54.5558 35.9778C54.2932 36.29 53.6672 37.0238 53.1296 37.6541L53.0334 37.7669C52.0679 38.912 51.1024 39.896 48.0111 42.9018C45.9409 44.9146 43.3787 46.8111 40.8165 48.2246C39.2661 49.0923 36.3512 50.3447 34.086 51.132C33.4269 51.3646 32.7585 51.615 32.6007 51.6955C32.1458 51.9192 25.8145 53.9409 24.8026 54.1825C24.2921 54.3077 23.6236 54.4866 23.3173 54.5761C21.6556 55.086 18.9541 55.7122 17.4688 55.9269C13.282 56.5263 12.595 56.58 10.8126 56.4547C10.0421 56.401 9.13231 56.3026 8.78882 56.2311C6.85788 55.8375 5.57677 55.0055 4.97336 53.7352C4.70414 53.1806 4.66701 52.9927 4.62987 52.1607C4.60202 51.3646 4.62987 51.0783 4.83411 50.3268C5.16831 49.0655 6.43085 46.6322 6.82075 46.4802C6.89501 46.4533 7.10853 46.507 7.30348 46.5875C7.49999 46.6749 7.58252 46.9096 7.48399 47.1007L6.96928 48.0993C6.08736 49.8169 5.88313 50.5773 5.92954 51.8834C5.95739 52.6975 5.99453 52.9032 6.21733 53.3416C6.89502 54.6745 8.59387 55.3275 11.6667 55.4438C12.9106 55.4886 13.3191 55.4617 14.7302 55.2649C15.6214 55.1397 16.8189 54.9697 17.3759 54.8892C18.3414 54.764 19.3533 54.5224 23.178 53.5473C25.7588 52.8943 31.6723 50.9799 34.1324 50.0048C36.9546 48.8866 38.2914 48.314 39.1455 47.8578C41.3827 46.6591 42.9516 45.6303 44.994 44.029C46.1358 43.1344 50.6568 38.7689 51.9101 37.3554C53.3212 35.7541 55.772 32.8468 56.2269 32.2116C56.4589 31.8896 56.886 31.3081 57.183 30.9145C58.1856 29.5815 59.244 28.0518 59.7638 27.202C60.0516 26.7368 60.5529 25.9227 60.8778 25.3949C62.8552 22.2102 63.7278 20.4211 64.0806 18.8645C64.4891 17.0395 64.1084 16.1986 62.521 15.4293C60.9707 14.6778 59.1326 14.5437 56.5518 14.982C55.7905 15.1162 54.6951 15.3041 54.1288 15.3935C52.8199 15.6082 51.8451 15.8229 49.8213 16.3418C48.9301 16.5654 47.844 16.8248 47.4076 16.9143C46.9713 17.0038 46.2194 17.2006 45.7366 17.3437C44.8083 17.63 42.9424 18.1399 41.9305 18.3904C41.3642 18.5335 40.2687 18.9092 37.7529 19.8217C31.6445 22.0492 26.9935 24.6703 23.5123 27.8371C22.2868 28.9553 19.8175 31.5765 18.8334 32.7931C18.3971 33.3298 17.738 34.0902 17.3574 34.4749C16.986 34.8596 16.4847 35.441 16.2341 35.7631C15.3615 36.926 14.1546 38.4647 12.6136 40.3791L12.4374 40.5988C11.0926 42.2762 10.9869 42.408 10.2742 43.4296C9.89354 43.9664 9.53149 44.4226 9.47579 44.4405C9.37367 44.4763 9.06732 43.5817 9.06732 43.2507C9.06732 43.1613 9.36439 42.714 9.72644 42.2756C10.0885 41.8283 10.5991 41.1664 10.859 40.7996C11.4717 39.9229 12.595 38.4826 13.087 37.9548C13.3005 37.7222 13.8111 37.096 14.2196 36.5682C14.9715 35.5752 15.5286 34.9043 16.559 33.7234C16.8839 33.3567 17.5616 32.5605 18.0815 31.9432C21.702 27.6135 25.2482 24.5451 28.9802 22.4875C32.5543 20.5284 37.8086 18.4083 41.3735 17.4868C42.2368 17.2632 44.3627 16.6549 45.7366 16.2344C46.1173 16.1181 46.8135 15.966 47.2684 15.8855C47.7326 15.805 48.9023 15.5456 49.8678 15.3041C50.8425 15.0625 52.0122 14.8031 52.4671 14.7226C52.9313 14.651 53.7203 14.49 54.2309 14.3647C56.7374 13.7922 58.7984 13.6044 60.5715 13.7922Z" fill="#656AC6"/>
<path d="M43.6572 19.5891C44.9661 20.1885 46.3401 21.1278 47.9182 22.5323C49.4407 23.8831 51.1396 26.1911 51.9751 28.025C52.7363 29.7068 53.2747 31.648 53.414 33.1688C53.4493 33.5885 53.2974 34.0024 52.999 34.2996L52.9127 34.3854C52.6063 34.6896 52.3093 35.0116 52.2629 35.1011C52.1979 35.2263 52.1515 34.9759 52.1143 34.2065C52.0308 32.7573 51.8173 31.6391 51.3995 30.4135C50.9539 29.1164 50.0163 27.2377 49.255 26.1374C48.0668 24.4019 45.2725 21.9687 43.4065 21.0383C42.8774 20.7699 42.1533 20.3942 41.8005 20.1885L41.5267 20.0355C41.3961 19.9626 41.423 19.7673 41.5684 19.7322C41.7912 19.6696 42.144 19.5444 42.3482 19.437C42.6405 19.2834 42.9612 19.2912 43.2653 19.4198C43.3849 19.4704 43.5191 19.5283 43.6572 19.5891Z" fill="#656AC6"/>
<path d="M53.2933 39.4756C53.0241 41.6584 51.9472 43.9038 49.942 46.4623C47.5005 49.5754 43.6479 51.9281 39.2847 52.9659C37.1867 53.4579 35.3485 53.601 33.4826 53.4042C31.923 53.2432 31.923 53.2432 32.972 52.7959C33.5383 52.5543 34.1139 52.3844 34.4945 52.3397C34.7993 52.2989 35.529 52.2134 36.1762 52.1376L36.3604 52.116C42.9516 51.3556 48.1689 47.8489 50.9075 42.3383C51.5202 41.1037 51.678 40.8622 52.1979 40.3702C52.5228 40.066 52.8941 39.6366 53.0334 39.413C53.1633 39.1893 53.2933 39.0104 53.3119 39.0104C53.3397 39.0104 53.3304 39.2251 53.2933 39.4756Z" fill="#656AC6"/>
<path d="M17.7473 37.3107C17.9237 38.5721 18.2486 40.0213 18.5456 40.889C18.7777 41.5779 19.8732 43.7338 20.3095 44.3511C20.8665 45.1472 22.0083 46.4802 22.6118 47.0437C23.8836 48.2156 26.1951 49.7096 27.6619 50.2821C27.9497 50.3984 28.2653 50.5684 28.3489 50.6578C28.4881 50.801 28.4789 50.8189 28.321 50.8725C28.2189 50.9083 27.8569 51.0515 27.5041 51.2035L27.4359 51.2308C27.0664 51.3783 26.6511 51.3586 26.2973 51.1767C23.8 49.8796 21.8784 48.4303 20.5601 46.8648C19.0562 45.0846 17.9979 43.3133 17.2088 41.2469C16.8654 40.3612 16.4012 38.5094 16.4012 38.0532C16.4012 37.8743 16.5961 37.5165 16.9768 36.9708C17.2924 36.5145 17.5523 36.1567 17.5616 36.1656C17.5802 36.1835 17.6544 36.6935 17.7473 37.3107Z" fill="#656AC6"/>
<path d="M37.558 17.2453C37.6962 17.2604 37.7267 17.4478 37.6005 17.506L37.001 17.782C35.8406 18.3188 35.3764 18.4261 33.3062 18.6587C30.4005 18.9718 27.6898 19.8933 25.4618 21.3156C23.4658 22.5859 22.5468 23.4179 20.9686 25.386C20.0774 26.4953 19.8267 26.8799 19.0562 28.3918C18.2393 30.0109 18.1279 30.1809 17.3574 30.986C16.9118 31.4512 16.5312 31.8269 16.5219 31.818C16.4476 31.7464 16.9118 29.8678 17.1996 29.0627C18.1836 26.3163 20.6344 23.0958 23.178 21.1904C25.9538 19.115 28.7202 17.9878 32.6935 17.3079C33.7518 17.129 36.2026 17.0932 37.558 17.2453Z" fill="#656AC6"/>
<path d="M39.5168 12.835C41.2992 13.1839 42.4132 13.4612 43.62 13.8727C44.6876 14.2395 45.7645 14.7584 45.7552 14.8926C45.7459 14.991 44.4834 15.483 44.242 15.483C44.1399 15.483 43.7593 15.3846 43.3879 15.2593C42.0047 14.7942 40.5101 14.4095 39.1826 14.168C37.92 13.9532 37.5858 13.9264 35.4321 13.9264C33.4083 13.9264 32.8699 13.9532 31.7188 14.1232C26.5572 14.9104 22.259 17.0127 18.7127 20.5016L17.6529 21.5367C17.4817 21.704 17.2098 21.709 17.0325 21.5482C16.8468 21.3872 16.6054 21.1904 16.494 21.1099C16.377 21.0347 16.3548 20.8728 16.4472 20.7689L16.9396 20.2153C18.7777 18.1041 22.2219 15.7156 25.2018 14.49C26.7986 13.828 27.6991 13.5417 29.3886 13.1571C31.8023 12.6114 32.5264 12.5398 35.8498 12.5756C38.0407 12.5935 38.3749 12.6203 39.5168 12.835Z" fill="#656AC6"/>
<path d="M15.1851 22.1029C15.937 22.3086 16.6797 23.1943 16.6797 23.892C16.6797 24.5987 15.9556 25.4754 15.2036 25.6901C14.4145 25.9138 13.3098 25.4217 12.9014 24.6614C12.66 24.2051 12.6878 23.4716 12.9849 22.9885C13.2634 22.5323 13.5605 22.3086 14.1268 22.1386C14.5909 21.9955 14.7859 21.9866 15.1851 22.1029Z" fill="#656AC6"/>
<path d="M38.4028 7.73592C42.9981 8.29056 47.8068 9.96341 51.4088 12.2535C52.6156 13.0229 53.2747 13.6044 52.9405 13.6044C52.8663 13.6044 52.5599 13.7117 52.2721 13.8369C51.6687 14.1053 51.7801 14.1322 50.564 13.3807C49.0322 12.4325 47.6119 11.7347 45.7181 11.0011C42.209 9.64137 37.92 8.88097 34.5038 8.99727C31.8023 9.09567 29.9085 9.36405 27.7269 9.95448C26.1487 10.3749 25.7867 10.5002 24.0693 11.2069C20.7829 12.5487 17.7566 14.4721 15.0644 16.9143C14.2939 17.63 13.4491 17.7863 13.904 17.5C14.1082 17.3658 13.9536 16.8032 14 17C14.0574 17.2398 14.3659 17.3367 14.5141 17.1396C14.9524 16.5565 15.5512 15.7861 15.5 16C15.4638 16.1513 14.9054 16.8747 14.4023 17.5047C13.8954 18.1395 13.9861 17.6896 14.0432 18.5C14.0432 18.269 13.9899 18.1196 13.9232 18.023C13.8812 17.9622 13.9148 17.9773 13.904 18.0504C13.8947 18.1041 13.6347 18.4619 13.3098 18.8555C12.9849 19.2402 12.4093 20.0185 12.0287 20.5821C11.6574 21.1457 11.2489 21.745 11.1375 21.915C10.5712 22.7291 9.18801 25.5917 8.75169 26.871C7.65625 30.0288 7.3499 31.8896 7.35918 35.4321C7.35918 38.1337 7.39631 38.5363 7.95332 41.2558C8.26895 42.7855 8.37107 43.1255 8.72384 43.8054C8.94664 44.2437 9.22514 44.9057 9.33654 45.2725C9.63361 46.2386 10.5248 47.8846 11.5274 49.3339C12.2979 50.461 12.79 51.0783 14.7487 53.3953C15.0458 53.7441 15.2872 54.0483 15.2872 54.0751C15.2872 54.093 14.9623 54.1825 14.5724 54.2719C14.122 54.3665 13.6547 54.2221 13.3362 53.89L13.1706 53.7173C10.7662 51.2393 8.79811 48.2156 7.74908 45.4067C7.48915 44.7178 7.20137 43.9395 7.10853 43.6801C6.88573 43.0897 6.33801 40.7727 6.14306 39.6366C5.80886 37.6149 5.75316 34.457 6.01309 32.1222C6.32873 29.2863 7.48915 25.4844 8.85381 22.8633C10.497 19.7054 12.8178 16.8159 15.4357 14.6689C17.3481 13.1034 18.657 12.2178 20.4209 11.2874C24.0507 9.37299 28.4232 8.0043 31.8394 7.70908C33.3341 7.58384 37.2424 7.60173 38.4028 7.73592Z" fill="#656AC6"/>
<path d="M51.9412 49.8779C52.0113 49.9198 52.0753 49.9929 52.1429 50.0386C52.2449 50.1076 52.4071 50.1901 52.5692 50.2463C52.792 50.3268 52.9777 50.4252 52.9777 50.461C52.9777 50.6042 52.1607 51.4093 51.2138 52.1876C45.4024 56.9915 38.4399 58.9327 31.1618 57.7876C28.943 57.4388 26.4272 56.7499 24.9697 56.0879C24.5427 55.8911 24.1992 55.7212 24.1992 55.7033C24.1992 55.6854 24.4499 55.5243 24.7562 55.3454C25.3039 55.0144 25.3318 55.0144 25.7867 55.1039C26.0466 55.1576 26.9285 55.4081 27.7548 55.6585C29.5 56.1863 30.5119 56.3921 32.3407 56.58C34.9772 56.8662 38.3749 56.6873 40.538 56.1506C42.5803 55.6496 45.2725 54.5493 46.9621 53.5294C48.2617 52.7422 49.8956 51.5256 50.8796 50.6221C51.2216 50.3057 51.5434 50.0331 51.7114 49.9078C51.7846 49.8533 51.8629 49.8311 51.9412 49.8779Z" fill="#656AC6"/>
<path d="M54.5651 45.8629C55.2521 46.1939 55.6884 47.1421 55.4842 47.8578C55.1964 48.9134 53.6739 49.477 52.727 48.8776C52.1979 48.5466 51.9101 48.0367 51.9194 47.4195C51.9287 46.838 52.105 46.4802 52.5599 46.0955C52.8663 45.8361 52.9777 45.7824 53.4883 45.6929C53.7575 45.6482 54.2866 45.7287 54.5651 45.8629Z" fill="#656AC6"/>
<path d="M58.8355 34.0634C59.0026 35.2532 58.8912 37.6149 58.6034 39.1535C58.1578 41.5063 57.1923 44.3242 56.6168 45.0041C56.467 45.1742 56.2158 45.2105 56.024 45.0896L55.8741 44.9952C55.6142 44.8252 55.3914 44.6284 55.3914 44.5479C55.3914 44.4763 55.5956 43.9216 55.8462 43.3223C56.8767 40.8801 57.3594 38.5005 57.3594 35.8794V35.4904C57.3594 34.8438 57.575 34.2158 57.9721 33.7056C58.6777 32.7931 58.6591 32.7931 58.8355 34.0634Z" fill="#656AC6"/>
<path d="M49.877 17.6657C51.1396 18.4888 53.3583 20.752 54.4537 22.3176C55.085 23.2121 56.0133 24.7866 56.4404 25.6812C56.7839 26.3879 57.6194 28.4902 57.6194 28.6422C57.6194 28.678 57.4894 28.7854 57.3409 28.8748C57.183 28.9643 56.951 29.1879 56.8117 29.3758C56.7052 29.524 56.4763 29.4926 56.4137 29.3211L56.3847 29.2416C55.3728 26.5847 54.6487 25.1623 53.3026 23.2211C52.235 21.6735 50.9632 20.2958 49.7192 19.3118C48.401 18.283 47.909 17.8268 48.0668 17.7731C48.141 17.7552 48.3824 17.6747 48.6145 17.6031C49.2179 17.4063 49.5057 17.4242 49.877 17.6657Z" fill="#656AC6"/>
<path d="M56.7931 16.798C57.508 17.5405 58.7612 19.1955 59.7453 20.7073C60.3858 21.6914 60.5993 22.076 60.8593 22.7112C60.9741 22.9879 60.9325 23.3049 60.75 23.5426L60.7015 23.6058C60.5158 23.8562 60.3116 24.1246 60.2558 24.2141C60.1723 24.3483 60.1166 24.2856 59.8752 23.7847C59.7174 23.4537 59.4203 22.9527 59.2254 22.6665C59.0212 22.3802 58.7426 21.9418 58.5941 21.7003C58.2413 21.083 56.6632 18.9629 56.069 18.292C55.8091 17.9878 55.3357 17.4242 55.0293 17.0395L54.9746 16.9713C54.7606 16.7042 54.9381 16.3068 55.28 16.2881C55.7256 16.2613 56.1526 16.2702 56.2269 16.306C56.3104 16.3328 56.5611 16.5565 56.7931 16.798Z" fill="#656AC6"/>
<path d="M62.9387 27.6671C63.3008 28.7764 63.7278 30.6461 63.9042 31.9254C64.0249 32.7752 64.062 33.6787 64.062 35.5216C64.062 37.8743 64.0527 38.0532 63.765 39.6813C63.3472 42.0788 63.078 43.1165 62.391 45.0488C61.5834 47.3032 59.476 50.7831 57.508 53.1179C56.0319 54.8624 53.7296 56.9378 52.0772 57.9934C49.1994 59.8362 47.3891 60.704 44.4277 61.6701C42.5524 62.2874 41.3642 62.5647 39.3404 62.8599C35.2186 63.4593 31.2639 63.1551 26.5572 61.8759C23.9857 61.1781 20.5323 59.5768 18.2114 58.0113C17.5895 57.5908 16.9582 57.0004 17.1531 57.0183C17.2274 57.0272 17.5802 56.9825 17.9515 56.9109C18.7777 56.7589 18.9727 56.8125 20.5416 57.725C21.8505 58.4765 24.0785 59.5231 25.3318 59.9704C28.7017 61.1781 32.4986 61.8132 35.757 61.7059C40.0181 61.5628 44.1585 60.5608 47.6397 58.8343C50.202 57.564 51.8173 56.5084 53.6275 54.916C55.4192 53.3416 56.691 51.9103 57.9536 50.0495C60.9335 45.6392 62.2053 41.8999 62.5395 36.5056C62.6788 34.2423 62.4839 32.1758 61.8897 29.6531C61.7319 29.0001 61.6112 28.3739 61.6112 28.2576C61.6112 28.1323 61.7319 27.9266 61.899 27.7745C62.0568 27.6314 62.2611 27.3809 62.3725 27.2199C62.4746 27.0678 62.586 26.9336 62.6231 26.9336C62.6695 26.9336 62.8088 27.2646 62.9387 27.6671Z" fill="#656AC6"/>
<path d="M47.8718 33.4551C49.0601 34.0276 49.3479 36.3893 48.4474 38.3037C48.1132 39.0283 46.1173 41.6673 45.9037 41.6852C45.7274 41.7031 45.6902 40.9695 45.6902 37.7848V34.8514C45.6902 34.5427 45.7877 34.2419 45.9687 33.9918C46.3029 33.5356 46.9528 33.1778 47.3055 33.2493C47.4355 33.2762 47.6954 33.3746 47.8718 33.4551Z" fill="#656AC6"/>
<path d="M47.8811 29.3132C48.4845 29.6084 48.9023 30.3688 48.763 30.9145C48.6702 31.2812 48.0761 31.8448 47.6676 31.9611C46.9528 32.1669 46.0709 31.7554 45.7738 31.0755C45.5881 30.664 45.616 30.2793 45.8481 29.8768C46.2658 29.1611 47.092 28.9285 47.8811 29.3132Z" fill="#656AC6"/>
<path d="M24.9048 36.0136C25.4246 36.3088 25.8981 36.926 26.1302 37.6238C26.2973 38.1158 26.3158 38.4647 26.3344 41.7836C26.3622 46.006 26.3715 45.8092 26.223 45.8092C26.0466 45.8092 24.9697 44.9504 24.3756 44.3332C24.0878 44.038 23.5958 43.4565 23.2802 43.045C21.9434 41.2916 21.4885 40.227 21.4699 38.7868C21.4606 37.9459 21.4792 37.8564 21.767 37.2839C22.1012 36.6398 22.7417 36.0136 23.2895 35.8168C23.7258 35.6557 24.4313 35.7452 24.9048 36.0136Z" fill="#656AC6"/>
<path d="M24.8119 30.825C25.239 30.995 25.7681 31.5586 25.8795 31.979C26.1116 32.802 25.7124 33.7503 24.9883 34.0902C24.6355 34.2513 24.4406 34.2781 23.8836 34.2513C23.1131 34.2155 22.7139 34.0008 22.3333 33.4014C22.0269 32.9273 22.0269 32.0416 22.3333 31.5138C22.8067 30.7177 23.8279 30.4314 24.8119 30.825Z" fill="#656AC6"/>
<path d="M14.0432 26.9336C14.136 26.9336 14.0525 27.2556 13.7461 28.1502C12.8828 30.6998 12.6229 32.2027 12.5207 35.0922L12.4714 36.5604C12.4613 36.8605 12.3475 37.1477 12.1494 37.3733C11.9823 37.5612 11.7595 37.8475 11.6388 37.9995C11.5274 38.1606 11.4067 38.2948 11.3789 38.2948C11.1282 38.2948 11.0075 34.3318 11.2118 32.5873C11.4253 30.6908 12.2608 27.5956 12.79 26.7547C12.892 26.5994 13.0907 26.5398 13.2613 26.6132L13.4862 26.7099C13.774 26.8352 14.0246 26.9336 14.0432 26.9336Z" fill="#656AC6"/>
<path d="M14.5909 44.4226C15.2872 45.8003 15.7978 46.6054 16.754 47.831C17.9701 49.3965 18.852 50.2911 20.9129 52.0265L21.0946 52.182C21.3575 52.4068 21.3004 52.8281 20.9872 52.9748C20.5702 53.1619 20.084 53.1034 19.7233 52.8227L19.5854 52.7154C17.8772 51.3735 15.5471 48.8418 14.5352 47.2316C13.904 46.2118 12.7157 43.9038 12.5486 43.3581C12.3444 42.6871 12.3722 42.5261 12.8457 41.7747C13.0181 41.5002 13.4313 41.5464 13.5388 41.8523L13.6812 42.2577C13.904 42.9018 14.3124 43.8769 14.5909 44.4226Z" fill="#656AC6"/>
</g>
<path d="M71.4487 55C71.382 55 71.3254 54.9767 71.2787 54.93C71.232 54.8833 71.2087 54.8267 71.2087 54.76V48.25C71.2087 48.1767 71.232 48.1167 71.2787 48.07C71.3254 48.0233 71.382 48 71.4487 48H75.5287C75.602 48 75.662 48.0233 75.7087 48.07C75.7554 48.1167 75.7787 48.1767 75.7787 48.25V48.95C75.7787 49.0167 75.7554 49.0733 75.7087 49.12C75.662 49.1667 75.602 49.19 75.5287 49.19H72.5987V54.76C72.5987 54.8267 72.5754 54.8833 72.5287 54.93C72.4887 54.9767 72.432 55 72.3587 55H71.4487ZM76.7084 55C76.6551 55 76.6051 54.98 76.5584 54.94C76.5184 54.9 76.4984 54.85 76.4984 54.79C76.4984 54.7633 76.5051 54.7333 76.5184 54.7L78.9284 48.25C78.9484 48.1833 78.9851 48.1267 79.0384 48.08C79.0984 48.0267 79.1784 48 79.2784 48H80.3684C80.4684 48 80.5451 48.0267 80.5984 48.08C80.6517 48.1267 80.6917 48.1833 80.7184 48.25L83.1284 54.7C83.1351 54.7333 83.1384 54.7633 83.1384 54.79C83.1384 54.85 83.1184 54.9 83.0784 54.94C83.0384 54.98 82.9917 55 82.9384 55H82.0684C81.9751 55 81.9051 54.98 81.8584 54.94C81.8184 54.8933 81.7917 54.85 81.7784 54.81L81.3084 53.59H78.3384L77.8684 54.81C77.8551 54.85 77.8251 54.8933 77.7784 54.94C77.7384 54.98 77.6717 55 77.5784 55H76.7084ZM78.6884 52.44H80.9584L79.8184 49.35L78.6884 52.44ZM84.812 55C84.7453 55 84.6887 54.9767 84.642 54.93C84.5953 54.8833 84.572 54.8267 84.572 54.76V48.25C84.572 48.1767 84.5953 48.1167 84.642 48.07C84.6887 48.0233 84.7453 48 84.812 48H88.892C88.9653 48 89.0253 48.0233 89.072 48.07C89.1187 48.1167 89.142 48.1767 89.142 48.25V48.95C89.142 49.0167 89.1187 49.0733 89.072 49.12C89.0253 49.1667 88.9653 49.19 88.892 49.19H85.962V54.76C85.962 54.8267 85.9387 54.8833 85.892 54.93C85.852 54.9767 85.7953 55 85.722 55H84.812ZM90.0717 55C90.0183 55 89.9683 54.98 89.9217 54.94C89.8817 54.9 89.8617 54.85 89.8617 54.79C89.8617 54.7633 89.8683 54.7333 89.8817 54.7L92.2917 48.25C92.3117 48.1833 92.3483 48.1267 92.4017 48.08C92.4617 48.0267 92.5417 48 92.6417 48H93.7317C93.8317 48 93.9083 48.0267 93.9617 48.08C94.015 48.1267 94.055 48.1833 94.0817 48.25L96.4917 54.7C96.4983 54.7333 96.5017 54.7633 96.5017 54.79C96.5017 54.85 96.4817 54.9 96.4417 54.94C96.4017 54.98 96.355 55 96.3017 55H95.4317C95.3383 55 95.2683 54.98 95.2217 54.94C95.1817 54.8933 95.155 54.85 95.1417 54.81L94.6717 53.59H91.7017L91.2317 54.81C91.2183 54.85 91.1883 54.8933 91.1417 54.94C91.1017 54.98 91.035 55 90.9417 55H90.0717ZM92.0517 52.44H94.3217L93.1817 49.35L92.0517 52.44ZM98.1753 55C98.1086 55 98.0519 54.9767 98.0053 54.93C97.9586 54.8833 97.9353 54.8267 97.9353 54.76V48.25C97.9353 48.1767 97.9586 48.1167 98.0053 48.07C98.0519 48.0233 98.1086 48 98.1753 48H100.855C101.375 48 101.829 48.0833 102.215 48.25C102.602 48.41 102.902 48.6567 103.115 48.99C103.329 49.3167 103.435 49.7267 103.435 50.22C103.435 50.72 103.329 51.1333 103.115 51.46C102.902 51.78 102.602 52.02 102.215 52.18C101.829 52.34 101.375 52.42 100.855 52.42H99.3653V54.76C99.3653 54.8267 99.3419 54.8833 99.2953 54.93C99.2553 54.9767 99.1986 55 99.1253 55H98.1753ZM99.3453 51.31H100.805C101.192 51.31 101.489 51.22 101.695 51.04C101.902 50.8533 102.005 50.58 102.005 50.22C102.005 49.8867 101.909 49.62 101.715 49.42C101.522 49.2133 101.219 49.11 100.805 49.11H99.3453V51.31ZM105.267 55C105.2 55 105.144 54.9767 105.097 54.93C105.05 54.8833 105.027 54.8233 105.027 54.75V48.25C105.027 48.1767 105.05 48.1167 105.097 48.07C105.144 48.0233 105.204 48 105.277 48H106.177C106.25 48 106.307 48.0233 106.347 48.07C106.394 48.1167 106.417 48.1767 106.417 48.25V52.84L109.707 48.16C109.734 48.1267 109.77 48.0933 109.817 48.06C109.864 48.02 109.924 48 109.997 48H110.827C110.894 48 110.95 48.0233 110.997 48.07C111.044 48.1167 111.067 48.1767 111.067 48.25V54.76C111.067 54.8267 111.044 54.8833 110.997 54.93C110.95 54.9767 110.894 55 110.827 55H109.927C109.854 55 109.794 54.9767 109.747 54.93C109.7 54.8833 109.677 54.8267 109.677 54.76V50.26L106.397 54.84C106.377 54.8667 106.344 54.9 106.297 54.94C106.25 54.98 106.187 55 106.107 55H105.267ZM113.365 55C113.298 55 113.241 54.98 113.195 54.94C113.148 54.8933 113.125 54.8333 113.125 54.76V48.25C113.125 48.1767 113.148 48.1167 113.195 48.07C113.241 48.0233 113.298 48 113.365 48H114.275C114.348 48 114.405 48.0233 114.445 48.07C114.491 48.1167 114.515 48.1767 114.515 48.25V50.83H117.465V48.25C117.465 48.1767 117.488 48.1167 117.535 48.07C117.581 48.0233 117.638 48 117.705 48H118.605C118.678 48 118.738 48.0233 118.785 48.07C118.831 48.1167 118.855 48.1767 118.855 48.25V54.76C118.855 54.8267 118.831 54.8833 118.785 54.93C118.738 54.9767 118.678 55 118.605 55H117.705C117.638 55 117.581 54.9767 117.535 54.93C117.488 54.8833 117.465 54.8267 117.465 54.76V52.08H114.515V54.76C114.515 54.8267 114.491 54.8833 114.445 54.93C114.405 54.9767 114.348 55 114.275 55H113.365ZM123.605 55C123.538 55 123.482 54.9767 123.435 54.93C123.388 54.8833 123.365 54.8267 123.365 54.76V54.25C123.365 54.19 123.378 54.12 123.405 54.04C123.438 53.9533 123.508 53.8667 123.615 53.78L125.195 52.21C125.635 51.8633 125.988 51.57 126.255 51.33C126.528 51.0833 126.725 50.86 126.845 50.66C126.972 50.4533 127.035 50.25 127.035 50.05C127.035 49.75 126.952 49.5067 126.785 49.32C126.625 49.1333 126.368 49.04 126.015 49.04C125.782 49.04 125.585 49.09 125.425 49.19C125.265 49.2833 125.138 49.41 125.045 49.57C124.958 49.73 124.898 49.9067 124.865 50.1C124.852 50.1867 124.815 50.2467 124.755 50.28C124.695 50.3133 124.635 50.33 124.575 50.33H123.685C123.625 50.33 123.575 50.31 123.535 50.27C123.495 50.23 123.475 50.1833 123.475 50.13C123.482 49.8433 123.542 49.5667 123.655 49.3C123.768 49.0267 123.932 48.7867 124.145 48.58C124.365 48.3667 124.632 48.1967 124.945 48.07C125.258 47.9433 125.612 47.88 126.005 47.88C126.558 47.88 127.015 47.9733 127.375 48.16C127.742 48.3467 128.015 48.6 128.195 48.92C128.382 49.24 128.475 49.6 128.475 50C128.475 50.3133 128.415 50.6033 128.295 50.87C128.175 51.13 128.002 51.3833 127.775 51.63C127.548 51.87 127.275 52.1167 126.955 52.37L125.535 53.81H128.385C128.458 53.81 128.515 53.8333 128.555 53.88C128.602 53.92 128.625 53.9767 128.625 54.05V54.76C128.625 54.8267 128.602 54.8833 128.555 54.93C128.515 54.9767 128.458 55 128.385 55H123.605ZM132.886 55.1C132.413 55.1 132.01 55.03 131.676 54.89C131.343 54.75 131.07 54.5567 130.856 54.31C130.643 54.0633 130.483 53.78 130.376 53.46C130.27 53.1333 130.206 52.7867 130.186 52.42C130.18 52.24 130.173 52.0433 130.166 51.83C130.166 51.61 130.166 51.39 130.166 51.17C130.173 50.95 130.18 50.7467 130.186 50.56C130.2 50.1933 130.263 49.85 130.376 49.53C130.49 49.2033 130.653 48.92 130.866 48.68C131.086 48.44 131.363 48.25 131.696 48.11C132.03 47.97 132.426 47.9 132.886 47.9C133.353 47.9 133.753 47.97 134.086 48.11C134.42 48.25 134.693 48.44 134.906 48.68C135.126 48.92 135.29 49.2033 135.396 49.53C135.51 49.85 135.573 50.1933 135.586 50.56C135.6 50.7467 135.606 50.95 135.606 51.17C135.606 51.39 135.606 51.61 135.606 51.83C135.606 52.0433 135.6 52.24 135.586 52.42C135.573 52.7867 135.513 53.1333 135.406 53.46C135.3 53.78 135.14 54.0633 134.926 54.31C134.713 54.5567 134.436 54.75 134.096 54.89C133.763 55.03 133.36 55.1 132.886 55.1ZM132.886 53.95C133.32 53.95 133.636 53.81 133.836 53.53C134.043 53.2433 134.15 52.8567 134.156 52.37C134.17 52.1767 134.176 51.9833 134.176 51.79C134.176 51.59 134.176 51.39 134.176 51.19C134.176 50.99 134.17 50.8 134.156 50.62C134.15 50.1467 134.043 49.7667 133.836 49.48C133.636 49.1867 133.32 49.04 132.886 49.04C132.46 49.04 132.143 49.1867 131.936 49.48C131.736 49.7667 131.63 50.1467 131.616 50.62C131.616 50.8 131.613 50.99 131.606 51.19C131.606 51.39 131.606 51.59 131.606 51.79C131.613 51.9833 131.616 52.1767 131.616 52.37C131.63 52.8567 131.74 53.2433 131.946 53.53C132.153 53.81 132.466 53.95 132.886 53.95ZM137.369 55C137.302 55 137.245 54.9767 137.199 54.93C137.152 54.8833 137.129 54.8267 137.129 54.76V54.25C137.129 54.19 137.142 54.12 137.169 54.04C137.202 53.9533 137.272 53.8667 137.379 53.78L138.959 52.21C139.399 51.8633 139.752 51.57 140.019 51.33C140.292 51.0833 140.489 50.86 140.609 50.66C140.735 50.4533 140.799 50.25 140.799 50.05C140.799 49.75 140.715 49.5067 140.549 49.32C140.389 49.1333 140.132 49.04 139.779 49.04C139.545 49.04 139.349 49.09 139.189 49.19C139.029 49.2833 138.902 49.41 138.809 49.57C138.722 49.73 138.662 49.9067 138.629 50.1C138.615 50.1867 138.579 50.2467 138.519 50.28C138.459 50.3133 138.399 50.33 138.339 50.33H137.449C137.389 50.33 137.339 50.31 137.299 50.27C137.259 50.23 137.239 50.1833 137.239 50.13C137.245 49.8433 137.305 49.5667 137.419 49.3C137.532 49.0267 137.695 48.7867 137.909 48.58C138.129 48.3667 138.395 48.1967 138.709 48.07C139.022 47.9433 139.375 47.88 139.769 47.88C140.322 47.88 140.779 47.9733 141.139 48.16C141.505 48.3467 141.779 48.6 141.959 48.92C142.145 49.24 142.239 49.6 142.239 50C142.239 50.3133 142.179 50.6033 142.059 50.87C141.939 51.13 141.765 51.3833 141.539 51.63C141.312 51.87 141.039 52.1167 140.719 52.37L139.299 53.81H142.149C142.222 53.81 142.279 53.8333 142.319 53.88C142.365 53.92 142.389 53.9767 142.389 54.05V54.76C142.389 54.8267 142.365 54.8833 142.319 54.93C142.279 54.9767 142.222 55 142.149 55H137.369ZM146.43 55.11C145.857 55.11 145.373 55.0167 144.98 54.83C144.587 54.6367 144.287 54.3867 144.08 54.08C143.88 53.7733 143.773 53.4467 143.76 53.1C143.753 53.04 143.77 52.9933 143.81 52.96C143.857 52.92 143.91 52.9 143.97 52.9H144.9C144.973 52.9 145.033 52.9167 145.08 52.95C145.133 52.9767 145.173 53.0267 145.2 53.1C145.267 53.3 145.36 53.4633 145.48 53.59C145.607 53.7167 145.75 53.81 145.91 53.87C146.077 53.93 146.25 53.96 146.43 53.96C146.67 53.96 146.887 53.9133 147.08 53.82C147.28 53.72 147.44 53.5733 147.56 53.38C147.68 53.1867 147.74 52.95 147.74 52.67C147.74 52.4233 147.683 52.21 147.57 52.03C147.457 51.85 147.3 51.71 147.1 51.61C146.907 51.5033 146.683 51.45 146.43 51.45C146.243 51.45 146.09 51.4733 145.97 51.52C145.85 51.5667 145.747 51.62 145.66 51.68C145.58 51.74 145.507 51.7933 145.44 51.84C145.38 51.8867 145.31 51.91 145.23 51.91H144.31C144.25 51.91 144.197 51.89 144.15 51.85C144.11 51.8033 144.09 51.75 144.09 51.69L144.44 48.27C144.447 48.1833 144.477 48.1167 144.53 48.07C144.583 48.0233 144.647 48 144.72 48H148.48C148.547 48 148.603 48.0233 148.65 48.07C148.697 48.1167 148.72 48.1733 148.72 48.24V48.91C148.72 48.9767 148.697 49.0333 148.65 49.08C148.603 49.1267 148.547 49.15 148.48 49.15H145.59L145.43 50.78C145.55 50.7 145.71 50.6233 145.91 50.55C146.11 50.4767 146.387 50.44 146.74 50.44C147.06 50.44 147.363 50.4933 147.65 50.6C147.943 50.7 148.203 50.85 148.43 51.05C148.657 51.2433 148.833 51.48 148.96 51.76C149.093 52.0333 149.16 52.3467 149.16 52.7C149.16 53.1867 149.047 53.61 148.82 53.97C148.593 54.33 148.277 54.61 147.87 54.81C147.463 55.01 146.983 55.11 146.43 55.11Z" fill="white"/>
<path d="M71.33 25C71.2367 25 71.1527 24.9673 71.078 24.902C71.0127 24.8367 70.98 24.7527 70.98 24.65V15.55C70.98 15.4473 71.0127 15.3633 71.078 15.298C71.1527 15.2327 71.2367 15.2 71.33 15.2H72.842C72.9913 15.2 73.1033 15.242 73.178 15.326C73.262 15.4007 73.3133 15.4613 73.332 15.508L75.796 19.932L78.26 15.508C78.288 15.4613 78.3347 15.4007 78.4 15.326C78.4747 15.242 78.5913 15.2 78.75 15.2H80.248C80.3507 15.2 80.4347 15.2327 80.5 15.298C80.5747 15.3633 80.612 15.4473 80.612 15.55V24.65C80.612 24.7527 80.5747 24.8367 80.5 24.902C80.4347 24.9673 80.3507 25 80.248 25H78.582C78.4793 25 78.3907 24.9673 78.316 24.902C78.2507 24.8367 78.218 24.7527 78.218 24.65V19.4L76.636 22.326C76.5987 22.41 76.5427 22.4847 76.468 22.55C76.3933 22.6153 76.2907 22.648 76.16 22.648H75.432C75.3013 22.648 75.1987 22.6153 75.124 22.55C75.0493 22.4847 74.9887 22.41 74.942 22.326L73.36 19.4V24.65C73.36 24.7527 73.3273 24.8367 73.262 24.902C73.1967 24.9673 73.1127 25 73.01 25H71.33ZM87.2641 25.14C86.4054 25.14 85.6587 25 85.0241 24.72C84.3894 24.44 83.8947 24.02 83.5401 23.46C83.1854 22.8907 82.9894 22.1813 82.9521 21.332C82.9427 20.9307 82.9381 20.5293 82.9381 20.128C82.9381 19.7267 82.9427 19.3207 82.9521 18.91C82.9894 18.07 83.1854 17.3653 83.5401 16.796C83.9041 16.2173 84.4034 15.7833 85.0381 15.494C85.6727 15.2047 86.4147 15.06 87.2641 15.06C88.1041 15.06 88.8414 15.2047 89.4761 15.494C90.1201 15.7833 90.6241 16.2173 90.9881 16.796C91.3521 17.3653 91.5481 18.07 91.5761 18.91C91.5947 19.3207 91.6041 19.7267 91.6041 20.128C91.6041 20.5293 91.5947 20.9307 91.5761 21.332C91.5387 22.1813 91.3427 22.8907 90.9881 23.46C90.6334 24.02 90.1387 24.44 89.5041 24.72C88.8694 25 88.1227 25.14 87.2641 25.14ZM87.2641 23.124C87.7587 23.124 88.1601 22.9747 88.4681 22.676C88.7854 22.3773 88.9534 21.9013 88.9721 21.248C88.9907 20.8373 89.0001 20.45 89.0001 20.086C89.0001 19.722 88.9907 19.344 88.9721 18.952C88.9534 18.5133 88.8694 18.1587 88.7201 17.888C88.5801 17.608 88.3841 17.4027 88.1321 17.272C87.8801 17.1413 87.5907 17.076 87.2641 17.076C86.9467 17.076 86.6621 17.1413 86.4101 17.272C86.1581 17.4027 85.9574 17.608 85.8081 17.888C85.6587 18.1587 85.5747 18.5133 85.5561 18.952C85.5467 19.344 85.5421 19.722 85.5421 20.086C85.5421 20.45 85.5467 20.8373 85.5561 21.248C85.5841 21.9013 85.7521 22.3773 86.0601 22.676C86.3681 22.9747 86.7694 23.124 87.2641 23.124ZM99.6249 25C99.5315 25 99.4475 24.9673 99.3729 24.902C99.3075 24.8367 99.2749 24.7527 99.2749 24.65V21.64H97.4129C96.7315 21.64 96.1295 21.5093 95.6069 21.248C95.0842 20.9867 94.6735 20.618 94.3749 20.142C94.0855 19.666 93.9409 19.1013 93.9409 18.448C93.9409 17.8227 94.0855 17.2673 94.3749 16.782C94.6735 16.2873 95.1029 15.9 95.6629 15.62C96.2229 15.34 96.9089 15.2 97.7209 15.2H101.445C101.538 15.2 101.618 15.2327 101.683 15.298C101.758 15.3633 101.795 15.4473 101.795 15.55V24.65C101.795 24.7527 101.758 24.8367 101.683 24.902C101.618 24.9673 101.538 25 101.445 25H99.6249ZM94.0249 25C93.9409 25 93.8709 24.972 93.8149 24.916C93.7589 24.8507 93.7309 24.7807 93.7309 24.706C93.7309 24.6593 93.7449 24.608 93.7729 24.552L95.9009 20.912L98.2529 21.332L96.4609 24.622C96.4049 24.7153 96.3349 24.804 96.2509 24.888C96.1669 24.9627 96.0409 25 95.8729 25H94.0249ZM97.7769 19.666H99.2749V17.146H97.7769C97.3849 17.146 97.0815 17.272 96.8669 17.524C96.6522 17.7667 96.5449 18.0747 96.5449 18.448C96.5449 18.8307 96.6475 19.1293 96.8529 19.344C97.0582 19.5587 97.3662 19.666 97.7769 19.666ZM112.142 25.14C111.255 25.14 110.494 24.9953 109.86 24.706C109.234 24.4167 108.744 23.992 108.39 23.432C108.044 22.872 107.853 22.1767 107.816 21.346C107.806 20.9633 107.802 20.5527 107.802 20.114C107.802 19.6753 107.806 19.2553 107.816 18.854C107.853 18.042 108.049 17.356 108.404 16.796C108.758 16.2267 109.253 15.7973 109.888 15.508C110.522 15.2093 111.274 15.06 112.142 15.06C112.758 15.06 113.327 15.1393 113.85 15.298C114.372 15.4473 114.83 15.6713 115.222 15.97C115.614 16.2593 115.917 16.614 116.132 17.034C116.356 17.4447 116.472 17.9113 116.482 18.434C116.491 18.518 116.463 18.588 116.398 18.644C116.342 18.7 116.272 18.728 116.188 18.728H114.298C114.176 18.728 114.083 18.7047 114.018 18.658C113.952 18.602 113.896 18.504 113.85 18.364C113.719 17.8693 113.504 17.5333 113.206 17.356C112.916 17.1693 112.557 17.076 112.128 17.076C111.614 17.076 111.208 17.2207 110.91 17.51C110.611 17.79 110.448 18.2613 110.42 18.924C110.392 19.6893 110.392 20.4733 110.42 21.276C110.448 21.9387 110.611 22.4147 110.91 22.704C111.208 22.984 111.614 23.124 112.128 23.124C112.557 23.124 112.921 23.0307 113.22 22.844C113.518 22.6573 113.728 22.3213 113.85 21.836C113.887 21.696 113.938 21.6027 114.004 21.556C114.078 21.5 114.176 21.472 114.298 21.472H116.188C116.272 21.472 116.342 21.5 116.398 21.556C116.463 21.612 116.491 21.682 116.482 21.766C116.472 22.2887 116.356 22.76 116.132 23.18C115.917 23.5907 115.614 23.9453 115.222 24.244C114.83 24.5333 114.372 24.7573 113.85 24.916C113.327 25.0653 112.758 25.14 112.142 25.14ZM119.004 25C118.901 25 118.817 24.9673 118.752 24.902C118.686 24.8367 118.654 24.7527 118.654 24.65V15.55C118.654 15.4473 118.686 15.3633 118.752 15.298C118.817 15.2327 118.901 15.2 119.004 15.2H125.542C125.644 15.2 125.728 15.2327 125.794 15.298C125.859 15.3633 125.892 15.4473 125.892 15.55V16.866C125.892 16.9687 125.859 17.0527 125.794 17.118C125.728 17.1833 125.644 17.216 125.542 17.216H121.076V19.106H125.234C125.336 19.106 125.42 19.1433 125.486 19.218C125.551 19.2833 125.584 19.3673 125.584 19.47V20.688C125.584 20.7813 125.551 20.8653 125.486 20.94C125.42 21.0053 125.336 21.038 125.234 21.038H121.076V22.984H125.654C125.756 22.984 125.84 23.0167 125.906 23.082C125.971 23.1473 126.004 23.2313 126.004 23.334V24.65C126.004 24.7527 125.971 24.8367 125.906 24.902C125.84 24.9673 125.756 25 125.654 25H119.004ZM128.645 25C128.552 25 128.468 24.9673 128.393 24.902C128.328 24.8367 128.295 24.7527 128.295 24.65V15.55C128.295 15.4473 128.328 15.3633 128.393 15.298C128.468 15.2327 128.552 15.2 128.645 15.2H130.157C130.307 15.2 130.419 15.242 130.493 15.326C130.577 15.4007 130.629 15.4613 130.647 15.508L133.111 19.932L135.575 15.508C135.603 15.4613 135.65 15.4007 135.715 15.326C135.79 15.242 135.907 15.2 136.065 15.2H137.563C137.666 15.2 137.75 15.2327 137.815 15.298C137.89 15.3633 137.927 15.4473 137.927 15.55V24.65C137.927 24.7527 137.89 24.8367 137.815 24.902C137.75 24.9673 137.666 25 137.563 25H135.897C135.795 25 135.706 24.9673 135.631 24.902C135.566 24.8367 135.533 24.7527 135.533 24.65V19.4L133.951 22.326C133.914 22.41 133.858 22.4847 133.783 22.55C133.709 22.6153 133.606 22.648 133.475 22.648H132.747C132.617 22.648 132.514 22.6153 132.439 22.55C132.365 22.4847 132.304 22.41 132.257 22.326L130.675 19.4V24.65C130.675 24.7527 130.643 24.8367 130.577 24.902C130.512 24.9673 130.428 25 130.325 25H128.645ZM140.925 25C140.823 25 140.739 24.9673 140.673 24.902C140.608 24.8367 140.575 24.7527 140.575 24.65V15.55C140.575 15.4473 140.608 15.3633 140.673 15.298C140.739 15.2327 140.823 15.2 140.925 15.2H142.731C142.834 15.2 142.918 15.2327 142.983 15.298C143.049 15.3633 143.081 15.4473 143.081 15.55V18.56H144.565C145.76 18.56 146.689 18.826 147.351 19.358C148.014 19.8807 148.345 20.674 148.345 21.738C148.345 22.382 148.201 22.9513 147.911 23.446C147.622 23.9407 147.193 24.3233 146.623 24.594C146.063 24.8647 145.377 25 144.565 25H140.925ZM143.081 23.054H144.509C144.911 23.054 145.214 22.9327 145.419 22.69C145.634 22.438 145.741 22.1207 145.741 21.738C145.741 21.318 145.634 21.0053 145.419 20.8C145.205 20.5947 144.901 20.492 144.509 20.492H143.081V23.054ZM156.188 25C156.095 25 156.011 24.9673 155.936 24.902C155.871 24.8367 155.838 24.7527 155.838 24.65V21.64H153.976C153.295 21.64 152.693 21.5093 152.17 21.248C151.647 20.9867 151.237 20.618 150.938 20.142C150.649 19.666 150.504 19.1013 150.504 18.448C150.504 17.8227 150.649 17.2673 150.938 16.782C151.237 16.2873 151.666 15.9 152.226 15.62C152.786 15.34 153.472 15.2 154.284 15.2H158.008C158.101 15.2 158.181 15.2327 158.246 15.298C158.321 15.3633 158.358 15.4473 158.358 15.55V24.65C158.358 24.7527 158.321 24.8367 158.246 24.902C158.181 24.9673 158.101 25 158.008 25H156.188ZM150.588 25C150.504 25 150.434 24.972 150.378 24.916C150.322 24.8507 150.294 24.7807 150.294 24.706C150.294 24.6593 150.308 24.608 150.336 24.552L152.464 20.912L154.816 21.332L153.024 24.622C152.968 24.7153 152.898 24.804 152.814 24.888C152.73 24.9627 152.604 25 152.436 25H150.588ZM154.34 19.666H155.838V17.146H154.34C153.948 17.146 153.645 17.272 153.43 17.524C153.215 17.7667 153.108 18.0747 153.108 18.448C153.108 18.8307 153.211 19.1293 153.416 19.344C153.621 19.5587 153.929 19.666 154.34 19.666ZM164.855 21.808C164.752 21.808 164.668 21.7753 164.603 21.71C164.538 21.6447 164.505 21.5607 164.505 21.458V20.142C164.505 20.0393 164.538 19.9553 164.603 19.89C164.668 19.8247 164.752 19.792 164.855 19.792H169.237C169.34 19.792 169.424 19.8247 169.489 19.89C169.554 19.9553 169.587 20.0393 169.587 20.142V21.458C169.587 21.5607 169.554 21.6447 169.489 21.71C169.424 21.7753 169.34 21.808 169.237 21.808H164.855Z" fill="white"/>
<path d="M71.33 42C71.2367 42 71.1527 41.9673 71.078 41.902C71.0127 41.8367 70.98 41.7527 70.98 41.65V32.55C70.98 32.4473 71.0127 32.3633 71.078 32.298C71.1527 32.2327 71.2367 32.2 71.33 32.2H72.842C72.9913 32.2 73.1033 32.242 73.178 32.326C73.262 32.4007 73.3133 32.4613 73.332 32.508L75.796 36.932L78.26 32.508C78.288 32.4613 78.3347 32.4007 78.4 32.326C78.4747 32.242 78.5913 32.2 78.75 32.2H80.248C80.3507 32.2 80.4347 32.2327 80.5 32.298C80.5747 32.3633 80.612 32.4473 80.612 32.55V41.65C80.612 41.7527 80.5747 41.8367 80.5 41.902C80.4347 41.9673 80.3507 42 80.248 42H78.582C78.4793 42 78.3907 41.9673 78.316 41.902C78.2507 41.8367 78.218 41.7527 78.218 41.65V36.4L76.636 39.326C76.5987 39.41 76.5427 39.4847 76.468 39.55C76.3933 39.6153 76.2907 39.648 76.16 39.648H75.432C75.3013 39.648 75.1987 39.6153 75.124 39.55C75.0493 39.4847 74.9887 39.41 74.942 39.326L73.36 36.4V41.65C73.36 41.7527 73.3273 41.8367 73.262 41.902C73.1967 41.9673 73.1127 42 73.01 42H71.33ZM87.2641 42.14C86.4054 42.14 85.6587 42 85.0241 41.72C84.3894 41.44 83.8947 41.02 83.5401 40.46C83.1854 39.8907 82.9894 39.1813 82.9521 38.332C82.9427 37.9307 82.9381 37.5293 82.9381 37.128C82.9381 36.7267 82.9427 36.3207 82.9521 35.91C82.9894 35.07 83.1854 34.3653 83.5401 33.796C83.9041 33.2173 84.4034 32.7833 85.0381 32.494C85.6727 32.2047 86.4147 32.06 87.2641 32.06C88.1041 32.06 88.8414 32.2047 89.4761 32.494C90.1201 32.7833 90.6241 33.2173 90.9881 33.796C91.3521 34.3653 91.5481 35.07 91.5761 35.91C91.5947 36.3207 91.6041 36.7267 91.6041 37.128C91.6041 37.5293 91.5947 37.9307 91.5761 38.332C91.5387 39.1813 91.3427 39.8907 90.9881 40.46C90.6334 41.02 90.1387 41.44 89.5041 41.72C88.8694 42 88.1227 42.14 87.2641 42.14ZM87.2641 40.124C87.7587 40.124 88.1601 39.9747 88.4681 39.676C88.7854 39.3773 88.9534 38.9013 88.9721 38.248C88.9907 37.8373 89.0001 37.45 89.0001 37.086C89.0001 36.722 88.9907 36.344 88.9721 35.952C88.9534 35.5133 88.8694 35.1587 88.7201 34.888C88.5801 34.608 88.3841 34.4027 88.1321 34.272C87.8801 34.1413 87.5907 34.076 87.2641 34.076C86.9467 34.076 86.6621 34.1413 86.4101 34.272C86.1581 34.4027 85.9574 34.608 85.8081 34.888C85.6587 35.1587 85.5747 35.5133 85.5561 35.952C85.5467 36.344 85.5421 36.722 85.5421 37.086C85.5421 37.45 85.5467 37.8373 85.5561 38.248C85.5841 38.9013 85.7521 39.3773 86.0601 39.676C86.3681 39.9747 86.7694 40.124 87.2641 40.124ZM94.2769 42C94.1742 42 94.0902 41.9673 94.0249 41.902C93.9595 41.8273 93.9269 41.7433 93.9269 41.65V32.55C93.9269 32.4473 93.9595 32.3633 94.0249 32.298C94.0995 32.2327 94.1835 32.2 94.2769 32.2H96.0829C96.1855 32.2 96.2695 32.2327 96.3349 32.298C96.4002 32.3633 96.4329 32.4473 96.4329 32.55V38.192L100.423 32.466C100.47 32.3913 100.53 32.3307 100.605 32.284C100.68 32.228 100.778 32.2 100.899 32.2H102.523C102.616 32.2 102.696 32.2327 102.761 32.298C102.836 32.3633 102.873 32.4473 102.873 32.55V41.65C102.873 41.7527 102.836 41.8367 102.761 41.902C102.696 41.9673 102.616 42 102.523 42H100.717C100.614 42 100.526 41.9673 100.451 41.902C100.386 41.8367 100.353 41.7527 100.353 41.65V36.218L96.3769 41.734C96.3302 41.7993 96.2695 41.86 96.1949 41.916C96.1295 41.972 96.0315 42 95.9009 42H94.2769ZM98.4489 31.626C97.8515 31.626 97.3709 31.5373 97.0069 31.36C96.6429 31.1733 96.3769 30.9307 96.2089 30.632C96.0409 30.324 95.9569 29.988 95.9569 29.624C95.9569 29.5493 95.9802 29.4887 96.0269 29.442C96.0735 29.386 96.1389 29.358 96.2229 29.358H97.3429C97.4269 29.358 97.4922 29.386 97.5389 29.442C97.5855 29.4887 97.6089 29.5493 97.6089 29.624C97.6089 29.7453 97.6322 29.8667 97.6789 29.988C97.7255 30.1 97.8095 30.1933 97.9309 30.268C98.0522 30.3333 98.2249 30.366 98.4489 30.366C98.6729 30.366 98.8409 30.3333 98.9529 30.268C99.0742 30.1933 99.1582 30.1 99.2049 29.988C99.2515 29.8667 99.2749 29.7453 99.2749 29.624C99.2749 29.5493 99.2982 29.4887 99.3449 29.442C99.3915 29.386 99.4569 29.358 99.5409 29.358H100.661C100.745 29.358 100.81 29.386 100.857 29.442C100.904 29.4887 100.927 29.5493 100.927 29.624C100.927 29.988 100.843 30.324 100.675 30.632C100.516 30.9307 100.255 31.1733 99.8909 31.36C99.5269 31.5373 99.0462 31.626 98.4489 31.626ZM109.554 42C109.451 42 109.367 41.9673 109.302 41.902C109.236 41.8367 109.204 41.7527 109.204 41.65V32.55C109.204 32.4473 109.236 32.3633 109.302 32.298C109.367 32.2327 109.451 32.2 109.554 32.2H111.36C111.462 32.2 111.546 32.2327 111.612 32.298C111.677 32.3633 111.71 32.4473 111.71 32.55V35.924H112.564L114.636 32.466C114.682 32.3913 114.748 32.3307 114.832 32.284C114.916 32.228 115.023 32.2 115.154 32.2H117.17C117.263 32.2 117.338 32.2327 117.394 32.298C117.45 32.354 117.478 32.4193 117.478 32.494C117.478 32.55 117.459 32.606 117.422 32.662L114.818 36.918L117.674 41.524C117.702 41.5613 117.716 41.6127 117.716 41.678C117.716 41.7713 117.683 41.8507 117.618 41.916C117.562 41.972 117.487 42 117.394 42H115.322C115.172 42 115.06 41.9673 114.986 41.902C114.92 41.8367 114.869 41.7807 114.832 41.734L112.662 38.164H111.71V41.65C111.71 41.7527 111.677 41.8367 111.612 41.902C111.546 41.9673 111.462 42 111.36 42H109.554ZM123.232 42.14C122.373 42.14 121.627 42 120.992 41.72C120.357 41.44 119.863 41.02 119.508 40.46C119.153 39.8907 118.957 39.1813 118.92 38.332C118.911 37.9307 118.906 37.5293 118.906 37.128C118.906 36.7267 118.911 36.3207 118.92 35.91C118.957 35.07 119.153 34.3653 119.508 33.796C119.872 33.2173 120.371 32.7833 121.006 32.494C121.641 32.2047 122.383 32.06 123.232 32.06C124.072 32.06 124.809 32.2047 125.444 32.494C126.088 32.7833 126.592 33.2173 126.956 33.796C127.32 34.3653 127.516 35.07 127.544 35.91C127.563 36.3207 127.572 36.7267 127.572 37.128C127.572 37.5293 127.563 37.9307 127.544 38.332C127.507 39.1813 127.311 39.8907 126.956 40.46C126.601 41.02 126.107 41.44 125.472 41.72C124.837 42 124.091 42.14 123.232 42.14ZM123.232 40.124C123.727 40.124 124.128 39.9747 124.436 39.676C124.753 39.3773 124.921 38.9013 124.94 38.248C124.959 37.8373 124.968 37.45 124.968 37.086C124.968 36.722 124.959 36.344 124.94 35.952C124.921 35.5133 124.837 35.1587 124.688 34.888C124.548 34.608 124.352 34.4027 124.1 34.272C123.848 34.1413 123.559 34.076 123.232 34.076C122.915 34.076 122.63 34.1413 122.378 34.272C122.126 34.4027 121.925 34.608 121.776 34.888C121.627 35.1587 121.543 35.5133 121.524 35.952C121.515 36.344 121.51 36.722 121.51 37.086C121.51 37.45 121.515 37.8373 121.524 38.248C121.552 38.9013 121.72 39.3773 122.028 39.676C122.336 39.9747 122.737 40.124 123.232 40.124ZM133.913 42.14C133.026 42.14 132.266 41.9953 131.631 41.706C131.006 41.4167 130.516 40.992 130.161 40.432C129.816 39.872 129.624 39.1767 129.587 38.346C129.578 37.9633 129.573 37.5527 129.573 37.114C129.573 36.6753 129.578 36.2553 129.587 35.854C129.624 35.042 129.82 34.356 130.175 33.796C130.53 33.2267 131.024 32.7973 131.659 32.508C132.294 32.2093 133.045 32.06 133.913 32.06C134.529 32.06 135.098 32.1393 135.621 32.298C136.144 32.4473 136.601 32.6713 136.993 32.97C137.385 33.2593 137.688 33.614 137.903 34.034C138.127 34.4447 138.244 34.9113 138.253 35.434C138.262 35.518 138.234 35.588 138.169 35.644C138.113 35.7 138.043 35.728 137.959 35.728H136.069C135.948 35.728 135.854 35.7047 135.789 35.658C135.724 35.602 135.668 35.504 135.621 35.364C135.49 34.8693 135.276 34.5333 134.977 34.356C134.688 34.1693 134.328 34.076 133.899 34.076C133.386 34.076 132.98 34.2207 132.681 34.51C132.382 34.79 132.219 35.2613 132.191 35.924C132.163 36.6893 132.163 37.4733 132.191 38.276C132.219 38.9387 132.382 39.4147 132.681 39.704C132.98 39.984 133.386 40.124 133.899 40.124C134.328 40.124 134.692 40.0307 134.991 39.844C135.29 39.6573 135.5 39.3213 135.621 38.836C135.658 38.696 135.71 38.6027 135.775 38.556C135.85 38.5 135.948 38.472 136.069 38.472H137.959C138.043 38.472 138.113 38.5 138.169 38.556C138.234 38.612 138.262 38.682 138.253 38.766C138.244 39.2887 138.127 39.76 137.903 40.18C137.688 40.5907 137.385 40.9453 136.993 41.244C136.601 41.5333 136.144 41.7573 135.621 41.916C135.098 42.0653 134.529 42.14 133.913 42.14ZM140.775 42C140.682 42 140.598 41.9673 140.523 41.902C140.458 41.8367 140.425 41.7527 140.425 41.65V32.55C140.425 32.4473 140.458 32.3633 140.523 32.298C140.598 32.2327 140.682 32.2 140.775 32.2H142.287C142.436 32.2 142.548 32.242 142.623 32.326C142.707 32.4007 142.758 32.4613 142.777 32.508L145.241 36.932L147.705 32.508C147.733 32.4613 147.78 32.4007 147.845 32.326C147.92 32.242 148.036 32.2 148.195 32.2H149.693C149.796 32.2 149.88 32.2327 149.945 32.298C150.02 32.3633 150.057 32.4473 150.057 32.55V41.65C150.057 41.7527 150.02 41.8367 149.945 41.902C149.88 41.9673 149.796 42 149.693 42H148.027C147.924 42 147.836 41.9673 147.761 41.902C147.696 41.8367 147.663 41.7527 147.663 41.65V36.4L146.081 39.326C146.044 39.41 145.988 39.4847 145.913 39.55C145.838 39.6153 145.736 39.648 145.605 39.648H144.877C144.746 39.648 144.644 39.6153 144.569 39.55C144.494 39.4847 144.434 39.41 144.387 39.326L142.805 36.4V41.65C142.805 41.7527 142.772 41.8367 142.707 41.902C142.642 41.9673 142.558 42 142.455 42H140.775ZM156.709 42.14C155.85 42.14 155.104 42 154.469 41.72C153.834 41.44 153.34 41.02 152.985 40.46C152.63 39.8907 152.434 39.1813 152.397 38.332C152.388 37.9307 152.383 37.5293 152.383 37.128C152.383 36.7267 152.388 36.3207 152.397 35.91C152.434 35.07 152.63 34.3653 152.985 33.796C153.349 33.2173 153.848 32.7833 154.483 32.494C155.118 32.2047 155.86 32.06 156.709 32.06C157.549 32.06 158.286 32.2047 158.921 32.494C159.565 32.7833 160.069 33.2173 160.433 33.796C160.797 34.3653 160.993 35.07 161.021 35.91C161.04 36.3207 161.049 36.7267 161.049 37.128C161.049 37.5293 161.04 37.9307 161.021 38.332C160.984 39.1813 160.788 39.8907 160.433 40.46C160.078 41.02 159.584 41.44 158.949 41.72C158.314 42 157.568 42.14 156.709 42.14ZM156.709 40.124C157.204 40.124 157.605 39.9747 157.913 39.676C158.23 39.3773 158.398 38.9013 158.417 38.248C158.436 37.8373 158.445 37.45 158.445 37.086C158.445 36.722 158.436 36.344 158.417 35.952C158.398 35.5133 158.314 35.1587 158.165 34.888C158.025 34.608 157.829 34.4027 157.577 34.272C157.325 34.1413 157.036 34.076 156.709 34.076C156.392 34.076 156.107 34.1413 155.855 34.272C155.603 34.4027 155.402 34.608 155.253 34.888C155.104 35.1587 155.02 35.5133 155.001 35.952C154.992 36.344 154.987 36.722 154.987 37.086C154.987 37.45 154.992 37.8373 155.001 38.248C155.029 38.9013 155.197 39.3773 155.505 39.676C155.813 39.9747 156.214 40.124 156.709 40.124ZM167.39 42.14C166.503 42.14 165.742 41.9953 165.108 41.706C164.482 41.4167 163.992 40.992 163.638 40.432C163.292 39.872 163.101 39.1767 163.064 38.346C163.054 37.9633 163.05 37.5527 163.05 37.114C163.05 36.6753 163.054 36.2553 163.064 35.854C163.101 35.042 163.297 34.356 163.652 33.796C164.006 33.2267 164.501 32.7973 165.136 32.508C165.77 32.2093 166.522 32.06 167.39 32.06C168.006 32.06 168.575 32.1393 169.098 32.298C169.62 32.4473 170.078 32.6713 170.47 32.97C170.862 33.2593 171.165 33.614 171.38 34.034C171.604 34.4447 171.72 34.9113 171.73 35.434C171.739 35.518 171.711 35.588 171.646 35.644C171.59 35.7 171.52 35.728 171.436 35.728H169.546C169.424 35.728 169.331 35.7047 169.266 35.658C169.2 35.602 169.144 35.504 169.098 35.364C168.967 34.8693 168.752 34.5333 168.454 34.356C168.164 34.1693 167.805 34.076 167.376 34.076C166.862 34.076 166.456 34.2207 166.158 34.51C165.859 34.79 165.696 35.2613 165.668 35.924C165.64 36.6893 165.64 37.4733 165.668 38.276C165.696 38.9387 165.859 39.4147 166.158 39.704C166.456 39.984 166.862 40.124 167.376 40.124C167.805 40.124 168.169 40.0307 168.468 39.844C168.766 39.6573 168.976 39.3213 169.098 38.836C169.135 38.696 169.186 38.6027 169.252 38.556C169.326 38.5 169.424 38.472 169.546 38.472H171.436C171.52 38.472 171.59 38.5 171.646 38.556C171.711 38.612 171.739 38.682 171.73 38.766C171.72 39.2887 171.604 39.76 171.38 40.18C171.165 40.5907 170.862 40.9453 170.47 41.244C170.078 41.5333 169.62 41.7573 169.098 41.916C168.575 42.0653 168.006 42.14 167.39 42.14Z" fill="#656AC6"/>
<defs>
<clipPath id="clip0_3_93">
<rect width="70" height="70" fill="white"/>
</clipPath>
</defs>
</svg>
